<?xml version="1.0" encoding="UTF-8"?>
<svg id="Layer_1" data-name="Layer 1" xmlns="http://www.w3.org/2000/svg" viewBox="0 0 963.4 256.66">
  <defs>
    <style>
      .cls-1 {
        fill: #262624;
      }
    </style>
  </defs>
  <g>
    <path class="cls-1" d="M422.79,81.71c-.94,5.12-2.02,8.86-3.21,11.12-1.07,2.03-3.26,3.64-6.5,4.77-3.46,1.21-9.1,1.83-16.74,1.83-3.41,0-5.98-.17-7.62-.5-1.33-.27-2.27-.71-2.71-1.3-.47-.62-.72-1.71-.72-3.17V17.9c0-2.66.62-3.48.89-3.71.68-.59,1.81-.92,3.38-.99l8.98-.48v-4.56h-34.05v4.56l9.13.48c1.46.07,2.55.4,3.23.99.26.23.88,1.05.88,3.71v76.56c0,1.23-.19,2.83-1.12,3.46-.99.67-2.41,1.09-4.22,1.24l-7.9.49v4.54h59.37l3.85-23.85h-4.66l-.25,1.36Z"/>
    <path class="cls-1" d="M447.74,26.05c1.79,0,3.3-.64,4.51-1.91,1.18-1.24,1.78-2.72,1.78-4.39s-.6-3.15-1.78-4.39c-2.34-2.46-6.39-2.58-8.93-.03-1.25,1.24-1.88,2.73-1.88,4.42s.63,3.18,1.87,4.42c1.24,1.25,2.73,1.88,4.42,1.88Z"/>
    <path class="cls-1" d="M452.19,98.35c-.16-.15-.67-.82-.67-3.23v-60.54l-15.77,5.87v4.66l5.82-1.61c.73-.14,1.24-.23,1.53-.23.44,0,.86,0,.86,1.52v50.33c0,2.41-.51,3.08-.67,3.23-.5.47-1.27.75-2.27.81l-6.32.52v4.51h26.1v-4.51l-6.32-.52c-1.02-.06-1.77-.33-2.28-.81Z"/>
    <path class="cls-1" d="M485.57,98.35c-.16-.15-.67-.82-.67-3.23v-35.63c0-5.88,1.65-10.58,4.89-13.95,3.28-3.4,7.21-5.06,11.99-5.06,4.27,0,7.62,1.59,10.22,4.87,2.67,3.35,4.01,8.15,4.01,14.27v35.5c0,2.41-.51,3.08-.67,3.23-.5.47-1.27.75-2.31.81l-6.29.52v4.51h26.1v-4.51l-6.32-.52c-1.02-.06-1.77-.33-2.28-.81-.16-.15-.67-.82-.67-3.23v-35.76c0-3.93.82-7.35,2.43-10.17,1.61-2.81,3.74-4.99,6.34-6.47,2.6-1.48,5.42-2.23,8.38-2.23,4.18,0,7.46,1.59,10.02,4.86,2.62,3.35,3.95,8.16,3.95,14.28v35.5c0,2.41-.51,3.08-.67,3.23-.5.47-1.27.75-2.31.81l-6.29.52v4.51h26.1v-4.51l-6.32-.53c-1.02-.06-1.77-.33-2.28-.81-.16-.15-.67-.82-.67-3.23v-36.16c0-7.33-1.79-13.29-5.33-17.73-3.62-4.54-8.72-6.85-15.14-6.85-4.76,0-9.35,1.63-13.65,4.83-2.82,2.11-4.99,4.64-6.51,7.57-1.24-3.19-3.1-5.83-5.55-7.85-3.65-3.02-8.1-4.56-13.24-4.56-4.39,0-8.73,1.48-12.88,4.41-2.01,1.42-3.71,3.07-5.07,4.94v-9.24l-16.83,5.94v4.61l6.81-1.66,1.47-.25c.55,0,.99,0,.99,1.52v50.47c0,2.41-.51,3.08-.67,3.23-.5.47-1.27.75-2.27.81l-6.32.52v4.51h26.1v-4.51l-6.32-.52c-1.02-.06-1.77-.33-2.28-.81Z"/>
    <path class="cls-1" d="M608.02,105.79c7.82,0,14.01-2.77,18.38-8.24,4.17-5.22,7.12-10.59,8.76-15.98l.49-1.59-4.54-1.36-.46,1.62c-.75,2.68-2.05,5.52-3.85,8.46-1.77,2.88-4.2,5.41-7.22,7.52-2.92,2.04-6.42,3.08-10.38,3.08-4.74,0-8.93-1.32-12.46-3.92-3.59-2.63-6.39-6.28-8.33-10.84-1.98-4.62-2.98-9.89-2.98-15.64,0-.7.04-1.56.12-2.58h34.12c3.6,0,6.22-.19,8.03-.56,2.12-.44,3.65-1.38,4.55-2.77.85-1.3,1.27-3.09,1.27-5.48,0-3.85-1.21-7.62-3.59-11.19-2.35-3.52-5.55-6.42-9.52-8.61-8.29-4.58-18.76-4.44-27.47.68-4.52,2.65-8.27,6.63-11.14,11.82-2.86,5.17-4.31,11.41-4.31,18.56,0,11.2,2.68,20.24,7.98,26.86,5.38,6.74,12.97,10.16,22.56,10.16ZM624.91,57.5c0,1.62-.31,2.76-.85,3.12h0c-.35.24-1.62.78-5.83.78h-32.09c1.29-7.08,3.78-12.57,7.39-16.33,3.9-4.07,8.39-6.05,13.71-6.05,3.84,0,7.11,1.02,9.71,3.03,2.68,2.08,4.7,4.6,5.99,7.51,1.31,2.95,1.98,5.62,1.98,7.94Z"/>
    <path class="cls-1" d="M685.44,69.79c-2.79-1.66-6.51-3.5-11.07-5.47l-2.54-1.07c-4.08-1.65-7.3-3.12-9.56-4.36-2.16-1.18-4-2.6-5.46-4.22-1.32-1.46-1.96-3.18-1.96-5.25,0-2.81,1.04-5.14,3.18-7.13,2.15-1.99,5.15-3,8.94-3,4.91,0,8.94,1.52,12.32,4.66,3.37,3.13,5.67,8.4,6.84,15.67l.22,1.4h4.76l-3.36-25.04h-4.74l.18,1.82c.06.67.02,1.28.13,1.76-.06,0-.65-.12-2.67-1.23-2.02-1.19-4-2.15-5.9-2.84-1.99-.73-4.25-1.1-6.73-1.1-5.77,0-10.61,1.65-14.4,4.9-3.85,3.32-5.81,7.48-5.81,12.38,0,3.3,1,6.18,2.96,8.54,1.86,2.24,4.41,4.21,7.6,5.85,3.02,1.55,7.38,3.51,12.97,5.82,6.45,2.72,10.97,5.51,13.44,8.31,2.4,2.71,3.56,5.6,3.56,8.84,0,3.42-1.22,6.15-3.74,8.36-2.58,2.26-5.76,3.37-9.71,3.37-14,0-22-8.29-24.45-25.33l-.2-1.42h-4.74l3.27,30.21h4.47v-1.66c0-.19-.02-.65-.07-1.38-.03-.4.06-.86.25-1.33,0,0,.76-.41,2.16.24.72.34,1.46.72,2.17,1.11,2.29,1.37,4.64,2.49,6.99,3.32,2.42.86,5.57,1.29,9.36,1.29,3.18,0,6.45-.61,9.72-1.83,3.35-1.24,6.2-3.26,8.45-6,2.32-2.81,3.49-6.35,3.49-10.52s-1.02-7.94-3.02-10.81c-1.94-2.79-4.4-5.08-7.33-6.84Z"/>
    <path class="cls-1" d="M763.06,101.11c5.1,3.11,10.73,4.68,16.76,4.68s11.66-1.6,16.77-4.75c5.08-3.14,9.14-7.48,12.04-12.88,2.9-5.39,4.37-11.42,4.37-17.94s-1.52-12.59-4.51-18.02c-3-5.44-7.11-9.81-12.23-12.99-10.28-6.4-23.42-6.42-33.62.08-5.08,3.23-9.13,7.68-12.03,13.21-2.89,5.51-4.36,11.61-4.36,18.12s1.55,12.54,4.59,17.85c3.04,5.3,7.15,9.55,12.23,12.65ZM779.43,39.03c4.32,0,8.48,1.37,12.37,4.08,3.94,2.74,7.17,6.57,9.6,11.37,2.43,4.83,3.66,10.13,3.66,15.75s-1.17,11-3.47,15.69c-2.29,4.67-5.43,8.4-9.32,11.09-7.71,5.33-17.2,5.28-24.89.12-3.9-2.61-7.08-6.3-9.45-10.97-2.38-4.68-3.59-9.95-3.59-15.67s1.19-11.05,3.54-15.83c2.34-4.76,5.49-8.62,9.36-11.45,3.8-2.78,7.9-4.18,12.2-4.18Z"/>
    <path class="cls-1" d="M880.84,98.35c-.16-.15-.67-.82-.67-3.23v-34.18c0-8.6-2.09-15.24-6.2-19.73-4.15-4.53-9.62-6.83-16.26-6.83-3.5,0-6.97.81-10.32,2.41-3.33,1.59-6.25,3.83-8.68,6.64-.57.66-1.11,1.35-1.59,2.05v-10.99l-16.83,5.94v4.61l6.81-1.66,1.47-.25c.55,0,.99,0,.99,1.52v50.47c0,2.41-.51,3.08-.67,3.23-.5.47-1.27.75-2.27.81l-6.32.52v4.51h26.1v-4.51l-6.32-.52c-1.02-.06-1.77-.33-2.28-.81-.16-.15-.67-.82-.67-3.23v-33.25c0-4.13.83-7.84,2.47-11.03,1.62-3.15,3.9-5.65,6.8-7.42,2.9-1.77,6.22-2.67,9.87-2.67,4.77,0,8.6,1.64,11.69,5.02,3.09,3.38,4.66,8.79,4.66,16.1v33.25c0,2.41-.51,3.09-.67,3.23-.5.47-1.27.75-2.31.81l-6.29.52v4.51h26.1v-4.51l-6.32-.52c-1.02-.06-1.77-.33-2.28-.81Z"/>
    <path class="cls-1" d="M949.03,78.61l-.46,1.62c-.75,2.68-2.05,5.52-3.85,8.46-1.77,2.88-4.2,5.41-7.22,7.52-2.92,2.04-6.42,3.08-10.38,3.08-4.74,0-8.93-1.32-12.46-3.92-3.59-2.63-6.39-6.28-8.33-10.84-1.98-4.62-2.98-9.89-2.98-15.64,0-.7.04-1.56.12-2.58h34.12c3.6,0,6.22-.19,8.03-.56,2.12-.44,3.65-1.38,4.55-2.77.85-1.3,1.27-3.09,1.27-5.48,0-3.85-1.21-7.62-3.59-11.19-2.35-3.52-5.55-6.42-9.52-8.61-8.29-4.58-18.76-4.44-27.47.68-4.52,2.65-8.27,6.63-11.14,11.82-2.86,5.17-4.31,11.41-4.31,18.56,0,11.2,2.68,20.24,7.98,26.86,5.38,6.74,12.97,10.16,22.56,10.16,7.82,0,14.01-2.77,18.38-8.24,4.17-5.22,7.12-10.59,8.76-15.98l.49-1.59-4.54-1.36ZM942.82,57.5c0,1.62-.31,2.76-.85,3.12h0c-.35.24-1.62.78-5.83.78h-32.09c1.3-7.08,3.78-12.57,7.39-16.33,3.9-4.07,8.39-6.05,13.71-6.05,3.84,0,7.11,1.02,9.71,3.03,2.68,2.08,4.7,4.6,5.99,7.51,1.31,2.95,1.98,5.62,1.98,7.94Z"/>
    <path class="cls-1" d="M368.91,151.69v4.54l7.88.49c1.82.15,3.24.57,4.24,1.24.75.51,1.13,1.67,1.13,3.46v76.56c0,1.23-.19,2.83-1.12,3.46-.99.67-2.41,1.09-4.22,1.24l-7.9.49v4.54h34.05v-4.54l-7.88-.49c-1.82-.15-3.25-.57-4.24-1.25-.75-.51-1.13-1.67-1.13-3.46v-40.46h23.11c1.28,0,2.35.39,3.29,1.19.89.76,1.34,1.72,1.41,2.99l.67,7.61h4.5v-28.62h-4.5l-.67,7.66c-.07,1.23-.54,2.22-1.44,3.02-.93.83-2,1.24-3.27,1.24h-23.11v-36.03h23.38c3.11,0,5.49.35,7.08,1.05,1.45.64,2.62,1.86,3.56,3.73,1.04,2.07,2.08,5.42,3.11,9.95l.29,1.29h4.62l-3.62-20.94h-59.22Z"/>
    <path class="cls-1" d="M450.45,169.58c1.79,0,3.3-.64,4.51-1.91,1.18-1.24,1.78-2.72,1.78-4.39s-.6-3.15-1.78-4.39c-2.34-2.46-6.39-2.58-8.93-.03-1.25,1.24-1.88,2.73-1.88,4.42s.63,3.18,1.87,4.42c1.24,1.25,2.73,1.88,4.42,1.88Z"/>
    <path class="cls-1" d="M454.9,241.88c-.16-.15-.67-.82-.67-3.23v-60.54l-15.77,5.87v4.66l5.82-1.61c.73-.14,1.24-.23,1.53-.23.44,0,.86,0,.86,1.52v50.33c0,2.41-.51,3.08-.67,3.23-.5.47-1.27.75-2.27.81l-6.32.52v4.51h26.1v-4.51l-6.32-.52c-1.02-.06-1.77-.33-2.28-.81Z"/>
    <path class="cls-1" d="M523.95,223.76c-.75,2.68-2.05,5.52-3.85,8.46-1.77,2.88-4.2,5.41-7.22,7.52-2.92,2.04-6.42,3.08-10.38,3.08-4.74,0-8.93-1.32-12.46-3.92-3.59-2.63-6.39-6.28-8.33-10.84-1.98-4.62-2.98-9.89-2.98-15.64,0-.7.04-1.56.12-2.58h34.12c3.6,0,6.22-.19,8.03-.56,2.12-.44,3.65-1.38,4.55-2.77.85-1.3,1.27-3.09,1.27-5.48,0-3.85-1.21-7.62-3.59-11.19-2.35-3.52-5.55-6.42-9.52-8.61-8.29-4.58-18.76-4.44-27.47.68-4.52,2.65-8.27,6.63-11.14,11.82-2.86,5.17-4.31,11.41-4.31,18.56,0,11.2,2.68,20.24,7.98,26.86,5.38,6.74,12.97,10.16,22.56,10.16,7.82,0,14.01-2.77,18.38-8.24,4.17-5.22,7.12-10.59,8.76-15.98l.49-1.59-4.54-1.36-.46,1.62ZM518.2,201.03c0,1.62-.31,2.76-.85,3.12h0c-.35.24-1.62.78-5.83.78h-32.09c1.29-7.08,3.78-12.57,7.39-16.33,3.9-4.07,8.39-6.05,13.71-6.05,3.84,0,7.11,1.02,9.71,3.03,2.68,2.08,4.7,4.6,5.99,7.51,1.31,2.95,1.98,5.62,1.98,7.94Z"/>
    <path class="cls-1" d="M553.18,241.88c-.16-.15-.67-.82-.67-3.23v-98.64l-16.83,5.94v4.61l6.81-1.66,1.47-.24c.55,0,.99,0,.99,1.52v88.49c0,2.41-.51,3.08-.67,3.23-.5.47-1.27.75-2.28.81l-6.32.52v4.51h26.1v-4.51l-6.32-.52c-1.02-.06-1.77-.33-2.28-.81Z"/>
    <path class="cls-1" d="M627.02,241.1c-.44,0-.86,0-.86-1.52v-99.62l-15.77,5.87v4.65l5.82-1.61c.73-.14,1.24-.23,1.53-.23.44,0,.86,0,.86,1.52v38.49c-1.87-2.38-4.1-4.48-6.66-6.27-8.48-5.94-20.08-6.02-29,.27-4.41,3.11-7.96,7.4-10.54,12.75-2.57,5.33-3.87,11.32-3.87,17.79-.1,6.56,1.02,12.65,3.31,18.08,2.3,5.49,5.6,9.91,9.79,13.13,4.25,3.26,9.23,4.91,14.79,4.91,5.99,0,11.34-2.25,15.93-6.7,2.48-2.41,4.57-5.16,6.26-8.24v15.39l15.77-5.87v-4.66l-5.83,1.61c-.73.15-1.23.23-1.52.23ZM587.09,238.72c-3.19-2.41-5.75-5.86-7.62-10.25-1.89-4.45-2.85-9.63-2.85-15.36.08-5.96,1.01-11.32,2.74-15.93,1.7-4.51,4.14-8.09,7.25-10.62,3.08-2.51,6.59-3.73,10.74-3.73,3.66,0,7.17,1.3,10.43,3.88,3.34,2.64,6.05,6.33,8.05,10.95,2.02,4.67,3.04,9.95,3.04,15.7s-1.02,10.88-3.02,15.27c-1.99,4.35-4.67,7.76-7.94,10.14-6.46,4.68-14.36,4.83-20.81-.05Z"/>
    <path class="cls-1" d="M681.39,213.32c-2.79-1.66-6.51-3.5-11.07-5.47l-2.54-1.07c-4.08-1.65-7.3-3.12-9.56-4.36-2.16-1.18-4-2.6-5.46-4.22-1.32-1.46-1.96-3.18-1.96-5.25,0-2.81,1.04-5.14,3.18-7.13,2.15-1.99,5.15-3,8.94-3,4.91,0,8.94,1.52,12.32,4.66,3.37,3.13,5.67,8.4,6.84,15.67l.22,1.4h4.76l-3.36-25.04h-4.74l.18,1.82c.06.67.02,1.28.13,1.76-.06,0-.65-.12-2.67-1.23-2.02-1.19-4-2.15-5.9-2.84-1.99-.73-4.25-1.1-6.73-1.1-5.77,0-10.61,1.65-14.4,4.9-3.85,3.32-5.81,7.48-5.81,12.38,0,3.3,1,6.18,2.96,8.54,1.86,2.24,4.41,4.21,7.6,5.85,3.02,1.55,7.38,3.51,12.97,5.82,6.45,2.72,10.97,5.51,13.44,8.31,2.4,2.71,3.56,5.6,3.56,8.84,0,3.42-1.22,6.15-3.74,8.36-2.58,2.26-5.76,3.37-9.71,3.37-14,0-22-8.29-24.45-25.33l-.2-1.42h-4.74l3.27,30.21h4.47v-1.66c0-.19-.02-.65-.07-1.38-.03-.4.06-.86.25-1.33,0,0,.76-.41,2.16.24.72.34,1.46.72,2.17,1.11,2.29,1.37,4.64,2.49,6.99,3.32,2.42.86,5.57,1.29,9.36,1.29,3.18,0,6.45-.61,9.72-1.83,3.35-1.24,6.2-3.26,8.45-6,2.32-2.81,3.49-6.35,3.49-10.52s-1.02-7.94-3.02-10.81c-1.94-2.79-4.4-5.08-7.33-6.84Z"/>
    <path class="cls-1" d="M682.95,45.89s-.47-2.87-.8-8.06c-.73-11.54.78-21.15,9.44-26.92,6.43-4.28,23.84-5.17,27.76,7.01.95,2.95.93,10.98.93,10.98l-5.3.04s1.31-6.93-2.3-11.62c-2.87-3.72-12.37-5.84-18.83-1.46-8.99,6.1-5.64,23.63-5.64,23.63l-5.27,6.4Z"/>
    <path class="cls-1" d="M737.06,94.22l-.76.89c-1.27,1.51-2.76,2.7-4.45,3.57-3.73,1.91-7.13,1.77-9.49-1.1-1.38-1.67-2.07-4.51-2.07-8.42v-48.28h19.74v-4.91h-19.74v-9.03h-5.08l-.46,3.48c-.22,1.88-.83,3.25-1.89,4.17-1.04.9-4.29,1.38-7.08,1.38h-6.03v4.91h12.98v48.15c0,5.02,1.11,9.08,3.3,12.05,2.31,3.13,5.68,4.71,10.01,4.71,2.61,0,5.17-.8,7.6-2.39,2.29-1.5,4.41-3.44,6.29-5.78l1.43-1.79-4.3-1.61Z"/>
  </g>
  <g>
    <g>
      <path class="cls-1" d="M176.57,109.21c25.86,8.52,30.72,2.8,45.47,5.18,1.96.32,31.26,5.77,33.2,6.11,16.59,2.9,31.36,5.87,51.59,8.82,6.63.96,4.06-1.06.13-2.87-3.64-1.68-34.31-15.37-43.73-19.21-31.22-12.73-43.03-19.93-46.56-20.24-1.51-.13-4.59,1.36-5.97,1.43-3.1.16-6.13-.84-9.54-1.91-2.89-.91-8.79-1.68-10.65-.63-.87.49-1.65,2.32-4.31,3.79-1.67.92-3.36.89-3.36,1.78,0,2.42,16.42,6.32,18.98,6.93,14.57,3.48,29.42,6.59,43.81,10.58,11.7,3.24,15.49,4.15,20.12,5.89,1.87.71,2.2,2.17-.31,1.32-3.49-.97-13.98-3.08-27.12-6.05-14.95-3.38-33.98-6.2-48.5-10.56-16.23-4.86-35.14-16.76-50.8-4.39-11.38,8.99-16.32,26.3-28.53,31.47-1.46.62-5.56,1.28-5.78,1.48-.75.65-1.42,10.1,0,19.77,1.97,13.36,7.95,21.93,14.53,27.08,16.18,12.67,40.48,3.52,54.48,17.13,7.98,7.75,7.53,21.34-14.98,31.37-17.05,7.6-39.75,9.13-47.79,9.82-1.93.16-3.42,3.08.56,4,18.17,5.04,37.89,7.83,58.52,7.83,11.08,0,21.89-.82,32.35-2.35,3.64-.53,6.96-2.44,9.22-5.34,12.39-15.85,16.51-39.66,8.4-54.74-5.07-9.41-12.51-17.64-23.79-21.94-3.13-1.2-8.5-2.31-11.75-2.64-16.45-1.64-46.89,5.51-46.83-19.83,0-3.72,1.65-9.29,3.52-12.51,7.85-13.58,22.03-20.98,35.39-16.58Z"/>
      <path class="cls-1" d="M174.49,79.17c-.48,3.47-.19,6.32,3.58,7.12,3.17.68,7.24-.4,7.16-4.2-.02-.95-.49-3.45-1.2-4.18-2.2-2.27-9-2.61-9.54,1.26ZM181.29,82.58c-.29.29-3.72.6-2.9-1.45,1.18-2.95,3.86.49,2.9,1.45Z"/>
      <path class="cls-1" d="M69.26,98.87c3.82-4.63,9.62-8.21,11.81-9.48,9.17-5.31,15.21-6.79,27.4-11.08,2.23-.78,11.02-4.88,13.13-5.7,4.58-1.77,6.09-2.07,9.59-2.35,3.15-.26,6.61.89,9.74.64,9.49-.77,10.98-3.23,21.25.98,2.64,1.08,5.21,4.05,7.47,3.53,4.68-1.08,9.59-5.02,16.03-1.13,3.47,2.1,3.47,7.2,5.29,7.27,1.78.06,4.74-.31,6.57-.05,1.98.28,9.19,2.62,11.16,2.88,1.3.17,4-.25,4.04-1.8.02-.81-3.02-3.93-3.7-4.57-15.62-14.97-31.23-19.95-53.18-17.42-6.14.71-11.99,3.3-18.11,4.52-3.41.68-7.61.17-11.13.89-7.44,1.53-17.18,6.39-24.15,7.03-6.16.56-20.37.85-25.58-1.75-5.59-2.79-7.93-6.1-10.4-7.59-4.15-2.51-5.81-.67-3.19,3.32,3.32,5.06,11.66,8.62,15.64,9.37,9.94,1.88,16.68.18,17,.98.4.87.05,1.12-1.03,1.58-12.15,5.2-27.28,12.46-31.13,17.19-3.64,4.47,2.56,6.31,5.48,2.77Z"/>
      <path class="cls-1" d="M105.58,120.4c-.22.84-1.07,2.98.06,2.96,5.26-.1,10.59-5.85,13.49-9.73,5.29-7.08,9.47-15.53,16.24-20.96,5.41-4.34,12.77-7.28,19.73-7.28,6.45,0,10.9,1.94,14.88,2.17,1.33.03-1.11-5.39-1.88-6.34-1.83-2.26-10.27-6.78-13.33-7.18-4.49-.59-9.45.73-13.3.98-8.29.55-9.42-2.19-17.66.96-22.94,8.77-38.51,21.72-47.57,46.72-4.06,11.21-5.36,21.46-4.13,33.73.81,8.13,3.12,10.63,5.85,9.12,2.96-1.64-.45-9.94-.88-12.3-2.22-12.16.13-20.66,3.61-30.1,6.78-18.37,17.61-30.3,34.99-38.95,1.97-.93,9.79-4.26,10.43-3.56,1.24,1.33-1.48,3.56-4.33,6.74-9.37,10.43-12.6,19.42-16.22,33.02Z"/>
    </g>
    <circle class="cls-1" cx="301.36" cy="74.51" r="2.06"/>
    <circle class="cls-1" cx="294.58" cy="70.41" r="2.06"/>
    <circle class="cls-1" cx="287.87" cy="70.83" r="2.06"/>
    <circle class="cls-1" cx="307.79" cy="67.02" r="2.06"/>
    <circle class="cls-1" cx="307.04" cy="73.13" r="2.06"/>
    <circle class="cls-1" cx="300.87" cy="68.41" r="2.06"/>
    <circle class="cls-1" cx="292.85" cy="52.34" r="2.06"/>
    <circle class="cls-1" cx="296.58" cy="63.78" r="2.06"/>
    <circle class="cls-1" cx="290.6" cy="64.74" r="2.06"/>
    <circle class="cls-1" cx="283.97" cy="66.13" r="2.06"/>
    <circle class="cls-1" cx="274.19" cy="54.03" r="2.06"/>
    <circle class="cls-1" cx="263.01" cy="54.42" r="2.06"/>
    <circle class="cls-1" cx="258.24" cy="50.67" r="2.06"/>
    <circle class="cls-1" cx="253.36" cy="46.94" r="2.06"/>
    <circle class="cls-1" cx="247.83" cy="50.28" r="2.06"/>
    <circle class="cls-1" cx="275.55" cy="47.55" r="2.06"/>
    <circle class="cls-1" cx="268.58" cy="50.75" r="2.06"/>
    <circle class="cls-1" cx="258.2" cy="43.04" r="2.06"/>
    <circle class="cls-1" cx="251.52" cy="40.86" r="2.06"/>
    <circle class="cls-1" cx="245.99" cy="43.81" r="2.06"/>
    <circle class="cls-1" cx="245.59" cy="37.79" r="2.06"/>
    <circle class="cls-1" cx="243.29" cy="23.89" r="2.06"/>
    <circle class="cls-1" cx="257.17" cy="29.8" r="2.06"/>
    <circle class="cls-1" cx="269.76" cy="43.7" r="2.06"/>
    <circle class="cls-1" cx="263.5" cy="46.83" r="2.06"/>
    <circle class="cls-1" cx="264.11" cy="39.7" r="2.06"/>
    <circle class="cls-1" cx="257.56" cy="36.64" r="2.06"/>
    <circle class="cls-1" cx="251" cy="34.16" r="2.06"/>
    <circle class="cls-1" cx="250.13" cy="26.72" r="2.06"/>
    <circle class="cls-1" cx="268.48" cy="64.21" r="2.06"/>
    <circle class="cls-1" cx="258.08" cy="58.67" r="2.06"/>
    <circle class="cls-1" cx="252.4" cy="54.76" r="2.06"/>
    <circle class="cls-1" cx="244.42" cy="61.66" r="2.06"/>
    <circle class="cls-1" cx="241.66" cy="47.58" r="2.06"/>
    <circle class="cls-1" cx="235.16" cy="46.97" r="2.06"/>
    <circle class="cls-1" cx="233" cy="40.32" r="2.06"/>
    <circle class="cls-1" cx="232.39" cy="33.52" r="2.06"/>
    <circle class="cls-1" cx="225.59" cy="31.51" r="2.06"/>
    <circle class="cls-1" cx="227.5" cy="37.76" r="2.06"/>
    <circle class="cls-1" cx="268.57" cy="57.81" r="2.06"/>
    <circle class="cls-1" cx="273.36" cy="60.89" r="2.06"/>
    <circle class="cls-1" cx="262.93" cy="61.48" r="2.06"/>
    <circle class="cls-1" cx="291.78" cy="58.88" r="2.06"/>
    <circle class="cls-1" cx="281.66" cy="43.81" r="2.06"/>
    <circle class="cls-1" cx="287.35" cy="47.97" r="2.06"/>
    <circle class="cls-1" cx="286.53" cy="53.88" r="2.06"/>
    <circle class="cls-1" cx="285.08" cy="59.61" r="2.06"/>
    <circle class="cls-1" cx="281.27" cy="50.27" r="2.06"/>
    <circle class="cls-1" cx="279.84" cy="56.44" r="2.06"/>
    <circle class="cls-1" cx="275.76" cy="40.05" r="2.06"/>
    <circle class="cls-1" cx="269.86" cy="36.53" r="2.06"/>
    <circle class="cls-1" cx="263.53" cy="32.78" r="2.06"/>
    <circle class="cls-1" cx="303.37" cy="62.58" r="2.06"/>
    <circle class="cls-1" cx="298.59" cy="57.53" r="2.06"/>
    <circle class="cls-1" cx="310.53" cy="79.89" r="2.06"/>
    <circle class="cls-1" cx="303.78" cy="79.87" r="2.06"/>
    <circle class="cls-1" cx="308.82" cy="85.91" r="2.06"/>
    <circle class="cls-1" cx="310.97" cy="91.8" r="2.06"/>
    <circle class="cls-1" cx="314.47" cy="97.28" r="2.06"/>
    <circle class="cls-1" cx="300.49" cy="96.23" r="2.06"/>
    <circle class="cls-1" cx="298.6" cy="89.76" r="2.06"/>
    <circle class="cls-1" cx="304.65" cy="91.55" r="2.06"/>
    <circle class="cls-1" cx="306.38" cy="97.68" r="2.06"/>
    <circle class="cls-1" cx="301.38" cy="102.73" r="2.06"/>
    <circle class="cls-1" cx="296.39" cy="107.29" r="2.06"/>
    <circle class="cls-1" cx="292.21" cy="112.15" r="2.06"/>
    <circle class="cls-1" cx="298.93" cy="114.94" r="2.06"/>
    <circle class="cls-1" cx="301.96" cy="110.25" r="2.06"/>
    <circle class="cls-1" cx="308.14" cy="112.79" r="2.06"/>
    <circle class="cls-1" cx="310.63" cy="102.38" r="2.06"/>
    <circle class="cls-1" cx="312.44" cy="108.81" r="2.06"/>
    <circle class="cls-1" cx="306.58" cy="106.63" r="2.06"/>
    <circle class="cls-1" cx="316.75" cy="102.77" r="2.06"/>
    <circle class="cls-1" cx="318.19" cy="108.57" r="2.06"/>
    <circle class="cls-1" cx="313.46" cy="115.96" r="2.06"/>
    <circle class="cls-1" cx="310.35" cy="121.2" r="2.06"/>
    <circle class="cls-1" cx="315.73" cy="124.17" r="2.06"/>
    <circle class="cls-1" cx="321.42" cy="126.97" r="2.06"/>
    <circle class="cls-1" cx="325.91" cy="123.32" r="2.06"/>
    <circle class="cls-1" cx="325.94" cy="130.41" r="2.06"/>
    <circle class="cls-1" cx="325.94" cy="137.56" r="2.06"/>
    <circle class="cls-1" cx="321.79" cy="133.41" r="2.06"/>
    <circle class="cls-1" cx="313.32" cy="141.43" r="2.06"/>
    <circle class="cls-1" cx="310.44" cy="135.04" r="2.06"/>
    <circle class="cls-1" cx="316.86" cy="130.59" r="2.06"/>
    <circle class="cls-1" cx="306.33" cy="140.24" r="2.06"/>
    <circle class="cls-1" cx="320.4" cy="140.3" r="2.06"/>
    <circle class="cls-1" cx="317.71" cy="145.82" r="2.06"/>
    <circle class="cls-1" cx="324.92" cy="143.84" r="2.06"/>
    <circle class="cls-1" cx="316.29" cy="136.05" r="2.06"/>
    <circle class="cls-1" cx="329.45" cy="148.36" r="2.06"/>
    <circle class="cls-1" cx="322.8" cy="149.64" r="2.06"/>
    <circle class="cls-1" cx="315.27" cy="151" r="2.06"/>
    <circle class="cls-1" cx="310.07" cy="145.96" r="2.06"/>
    <circle class="cls-1" cx="303.68" cy="144.99" r="2.06"/>
    <circle class="cls-1" cx="307.38" cy="150.63" r="2.06"/>
    <circle class="cls-1" cx="311.61" cy="155.31" r="2.06"/>
    <circle class="cls-1" cx="320.36" cy="154.61" r="2.06"/>
    <circle class="cls-1" cx="326.98" cy="154.11" r="2.06"/>
    <circle class="cls-1" cx="324.53" cy="160.23" r="2.06"/>
    <circle class="cls-1" cx="304.07" cy="135.26" r="2.06"/>
    <circle class="cls-1" cx="297.14" cy="134.32" r="2.06"/>
    <circle class="cls-1" cx="298.66" cy="140.15" r="2.06"/>
    <circle class="cls-1" cx="330.76" cy="141.54" r="2.06"/>
    <circle class="cls-1" cx="331.19" cy="134" r="2.06"/>
    <circle class="cls-1" cx="330.7" cy="119.95" r="2.06"/>
    <circle class="cls-1" cx="331.35" cy="127.12" r="2.06"/>
    <circle class="cls-1" cx="320.05" cy="120.76" r="2.06"/>
    <circle class="cls-1" cx="322.52" cy="104.21" r="2.06"/>
    <circle class="cls-1" cx="324.19" cy="111.15" r="2.06"/>
    <circle class="cls-1" cx="325.35" cy="117.24" r="2.06"/>
    <circle class="cls-1" cx="319.2" cy="114.74" r="2.06"/>
    <circle class="cls-1" cx="328.6" cy="106.75" r="2.06"/>
    <circle class="cls-1" cx="329.91" cy="113.05" r="2.06"/>
    <circle class="cls-1" cx="304.52" cy="118.03" r="2.06"/>
    <circle class="cls-1" cx="293.96" cy="93.69" r="2.06"/>
    <circle class="cls-1" cx="290.06" cy="98.35" r="2.06"/>
    <circle class="cls-1" cx="295.48" cy="100.3" r="2.06"/>
    <circle class="cls-1" cx="285.9" cy="109.9" r="2.06"/>
    <circle class="cls-1" cx="290.47" cy="105.19" r="2.06"/>
    <circle class="cls-1" cx="312.85" cy="73.59" r="2.06"/>
    <circle class="cls-1" cx="295.14" cy="76.64" r="2.06"/>
    <circle class="cls-1" cx="263.25" cy="81.53" r="2.06"/>
    <circle class="cls-1" cx="272.85" cy="83.45" r="2.06"/>
    <circle class="cls-1" cx="267.73" cy="85.68" r="2.06"/>
    <circle class="cls-1" cx="279.19" cy="84.98" r="2.06"/>
    <circle class="cls-1" cx="274.7" cy="89.16" r="2.06"/>
    <circle class="cls-1" cx="285.57" cy="85.43" r="2.06"/>
    <circle class="cls-1" cx="288.31" cy="91.41" r="2.06"/>
    <circle class="cls-1" cx="281.82" cy="90.55" r="2.06"/>
    <circle class="cls-1" cx="283.49" cy="96.38" r="2.06"/>
    <circle class="cls-1" cx="284.69" cy="103.36" r="2.06"/>
    <circle class="cls-1" cx="279.42" cy="107.02" r="2.06"/>
    <circle class="cls-1" cx="272.96" cy="103.85" r="2.06"/>
    <circle class="cls-1" cx="278.52" cy="100.78" r="2.06"/>
    <circle class="cls-1" cx="258.94" cy="92.15" r="2.06"/>
    <circle class="cls-1" cx="260.84" cy="99.02" r="2.06"/>
    <circle class="cls-1" cx="264.7" cy="94.37" r="2.06"/>
    <circle class="cls-1" cx="264.14" cy="74.85" r="2.06"/>
    <circle class="cls-1" cx="258.55" cy="72.96" r="2.06"/>
    <circle class="cls-1" cx="250.84" cy="82.57" r="2.06"/>
    <circle class="cls-1" cx="262.61" cy="68.46" r="2.06"/>
    <circle class="cls-1" cx="251.01" cy="61.82" r="2.06"/>
    <circle class="cls-1" cx="247.1" cy="67.29" r="2.06"/>
    <circle class="cls-1" cx="257.01" cy="65.24" r="2.06"/>
    <circle class="cls-1" cx="252.87" cy="70.07" r="2.06"/>
    <circle class="cls-1" cx="258.11" cy="78.21" r="2.06"/>
    <circle class="cls-1" cx="256.71" cy="84.26" r="2.06"/>
    <circle class="cls-1" cx="246.54" cy="72.87" r="2.06"/>
    <circle class="cls-1" cx="252.46" cy="76.9" r="2.06"/>
    <circle class="cls-1" cx="241.63" cy="90.86" r="2.06"/>
    <circle class="cls-1" cx="235.56" cy="88.44" r="2.06"/>
    <circle class="cls-1" cx="239.65" cy="76.69" r="2.06"/>
    <circle class="cls-1" cx="228.46" cy="71.75" r="2.06"/>
    <circle class="cls-1" cx="233.2" cy="75.26" r="2.06"/>
    <circle class="cls-1" cx="229.27" cy="79.72" r="2.06"/>
    <circle class="cls-1" cx="245.25" cy="79.95" r="2.06"/>
    <circle class="cls-1" cx="229.47" cy="85.66" r="2.06"/>
    <circle class="cls-1" cx="235.08" cy="81.95" r="2.06"/>
    <circle class="cls-1" cx="240.64" cy="84.73" r="2.06"/>
    <circle class="cls-1" cx="223.72" cy="82.77" r="2.06"/>
    <circle class="cls-1" cx="218.92" cy="72.97" r="2.06"/>
    <circle class="cls-1" cx="224.44" cy="76.29" r="2.06"/>
    <circle class="cls-1" cx="218.17" cy="79.21" r="2.06"/>
    <circle class="cls-1" cx="239.19" cy="41.46" r="2.06"/>
    <circle class="cls-1" cx="239.01" cy="35.18" r="2.06"/>
    <circle class="cls-1" cx="28.92" cy="114.04" r="2.06"/>
    <circle class="cls-1" cx="36.33" cy="113.38" r="2.06"/>
    <circle class="cls-1" cx="33.93" cy="118.84" r="2.06"/>
    <circle class="cls-1" cx="45.31" cy="120.6" r="2.06"/>
    <circle class="cls-1" cx="50.98" cy="122.27" r="2.06"/>
    <circle class="cls-1" cx="56.49" cy="124.8" r="2.06"/>
    <circle class="cls-1" cx="43.24" cy="126.29" r="2.06"/>
    <circle class="cls-1" cx="49.26" cy="128.36" r="2.06"/>
    <circle class="cls-1" cx="61.38" cy="129.59" r="2.06"/>
    <circle class="cls-1" cx="54.82" cy="131.44" r="2.06"/>
    <circle class="cls-1" cx="48.79" cy="134.63" r="2.06"/>
    <circle class="cls-1" cx="44.23" cy="138.48" r="2.06"/>
    <circle class="cls-1" cx="42.55" cy="114.57" r="2.06"/>
    <circle class="cls-1" cx="50.59" cy="99.99" r="2.06"/>
    <circle class="cls-1" cx="50.63" cy="106.23" r="2.06"/>
    <circle class="cls-1" cx="44.01" cy="104.25" r="2.06"/>
    <circle class="cls-1" cx="47.18" cy="110.24" r="2.06"/>
    <circle class="cls-1" cx="53.3" cy="112.34" r="2.06"/>
    <circle class="cls-1" cx="55.05" cy="117.61" r="2.06"/>
    <circle class="cls-1" cx="56.91" cy="107.86" r="2.06"/>
    <circle class="cls-1" cx="63.46" cy="106.01" r="2.06"/>
    <circle class="cls-1" cx="69.34" cy="105.05" r="2.06"/>
    <circle class="cls-1" cx="74.36" cy="100.62" r="2.06"/>
    <circle class="cls-1" cx="74.6" cy="109.94" r="2.06"/>
    <circle class="cls-1" cx="72.08" cy="115.49" r="2.06"/>
    <circle class="cls-1" cx="82.01" cy="100.68" r="2.06"/>
    <circle class="cls-1" cx="78.09" cy="105.33" r="2.06"/>
    <circle class="cls-1" cx="78.69" cy="96.23" r="2.06"/>
    <circle class="cls-1" cx="84.72" cy="94.36" r="2.06"/>
    <circle class="cls-1" cx="89.79" cy="90.74" r="2.06"/>
    <circle class="cls-1" cx="67.13" cy="111.19" r="2.06"/>
    <circle class="cls-1" cx="69.81" cy="121.72" r="2.06"/>
    <circle class="cls-1" cx="65.31" cy="117.37" r="2.06"/>
    <circle class="cls-1" cx="64.03" cy="123.6" r="2.06"/>
    <circle class="cls-1" cx="68.03" cy="128.73" r="2.06"/>
    <circle class="cls-1" cx="66.07" cy="134.98" r="2.06"/>
    <circle class="cls-1" cx="60.33" cy="113.35" r="2.06"/>
    <circle class="cls-1" cx="59.75" cy="119.68" r="2.06"/>
    <circle class="cls-1" cx="65.58" cy="140.74" r="2.06"/>
    <circle class="cls-1" cx="65.46" cy="147.48" r="2.06"/>
    <circle class="cls-1" cx="65.46" cy="153.85" r="2.06"/>
    <circle class="cls-1" cx="66.19" cy="160.6" r="2.06"/>
    <circle class="cls-1" cx="68.19" cy="166.26" r="2.06"/>
    <circle class="cls-1" cx="62.02" cy="168.51" r="2.06"/>
    <circle class="cls-1" cx="57.15" cy="172.51" r="2.06"/>
    <circle class="cls-1" cx="51.21" cy="175.38" r="2.06"/>
    <circle class="cls-1" cx="45.45" cy="177.9" r="2.06"/>
    <circle class="cls-1" cx="49.61" cy="181.85" r="2.06"/>
    <circle class="cls-1" cx="56.05" cy="178.63" r="2.06"/>
    <circle class="cls-1" cx="59.72" cy="182.97" r="2.06"/>
    <circle class="cls-1" cx="54.12" cy="185.17" r="2.06"/>
    <circle class="cls-1" cx="57.25" cy="190.24" r="2.06"/>
    <circle class="cls-1" cx="49.12" cy="189.15" r="2.06"/>
    <circle class="cls-1" cx="53.07" cy="194.57" r="2.06"/>
    <circle class="cls-1" cx="52.2" cy="200.78" r="2.06"/>
    <circle class="cls-1" cx="57.31" cy="204.49" r="2.06"/>
    <circle class="cls-1" cx="55.67" cy="210.31" r="2.06"/>
    <circle class="cls-1" cx="47.18" cy="194.93" r="2.06"/>
    <circle class="cls-1" cx="46.25" cy="201.34" r="2.06"/>
    <circle class="cls-1" cx="41.18" cy="196.91" r="2.06"/>
    <circle class="cls-1" cx="63.24" cy="187.65" r="2.06"/>
    <circle class="cls-1" cx="68.83" cy="187.18" r="2.06"/>
    <circle class="cls-1" cx="58.55" cy="198.47" r="2.06"/>
    <circle class="cls-1" cx="63.17" cy="193.99" r="2.06"/>
    <circle class="cls-1" cx="63.46" cy="201.21" r="2.06"/>
    <circle class="cls-1" cx="61.73" cy="207.42" r="2.06"/>
    <circle class="cls-1" cx="67.65" cy="205.54" r="2.06"/>
    <circle class="cls-1" cx="66.06" cy="211.32" r="2.06"/>
    <circle class="cls-1" cx="68.37" cy="198.03" r="2.06"/>
    <circle class="cls-1" cx="72.41" cy="203.38" r="2.06"/>
    <circle class="cls-1" cx="71.69" cy="209.44" r="2.06"/>
    <circle class="cls-1" cx="76.93" cy="208.99" r="2.06"/>
    <circle class="cls-1" cx="82.39" cy="211.33" r="2.06"/>
    <circle class="cls-1" cx="88.98" cy="216.18" r="2.06"/>
    <circle class="cls-1" cx="94.06" cy="219.07" r="2.06"/>
    <circle class="cls-1" cx="95.53" cy="230.37" r="2.06"/>
    <circle class="cls-1" cx="94.59" cy="224.55" r="2.06"/>
    <circle class="cls-1" cx="106.88" cy="229.53" r="2.06"/>
    <circle class="cls-1" cx="106.46" cy="223.38" r="2.06"/>
    <circle class="cls-1" cx="100.76" cy="221.15" r="2.06"/>
    <circle class="cls-1" cx="94.76" cy="212.72" r="2.06"/>
    <circle class="cls-1" cx="100.9" cy="227.31" r="2.06"/>
    <circle class="cls-1" cx="101.91" cy="233.27" r="2.06"/>
    <circle class="cls-1" cx="89.29" cy="227.66" r="2.06"/>
    <circle class="cls-1" cx="88.04" cy="221.93" r="2.06"/>
    <circle class="cls-1" cx="83.2" cy="224.96" r="2.06"/>
    <circle class="cls-1" cx="77.47" cy="223.01" r="2.06"/>
    <circle class="cls-1" cx="82.62" cy="218.03" r="2.06"/>
    <circle class="cls-1" cx="78.77" cy="202.94" r="2.06"/>
    <circle class="cls-1" cx="65.92" cy="217.24" r="2.06"/>
    <circle class="cls-1" cx="60.58" cy="213.92" r="2.06"/>
    <circle class="cls-1" cx="51.71" cy="206.04" r="2.06"/>
    <circle class="cls-1" cx="62.31" cy="176.52" r="2.06"/>
    <circle class="cls-1" cx="66.5" cy="181.28" r="2.06"/>
    <circle class="cls-1" cx="71" cy="176.78" r="2.06"/>
    <circle class="cls-1" cx="77.9" cy="176.67" r="2.06"/>
    <circle class="cls-1" cx="73.33" cy="182.37" r="2.06"/>
    <circle class="cls-1" cx="73.28" cy="170.89" r="2.06"/>
    <circle class="cls-1" cx="79.91" cy="170.62" r="2.06"/>
    <circle class="cls-1" cx="83.74" cy="166.18" r="2.06"/>
    <circle class="cls-1" cx="89.85" cy="167.08" r="2.06"/>
    <circle class="cls-1" cx="87" cy="150.1" r="2.06"/>
    <circle class="cls-1" cx="82.38" cy="153.42" r="2.06"/>
    <circle class="cls-1" cx="81.22" cy="146.93" r="2.06"/>
    <circle class="cls-1" cx="86.27" cy="144.18" r="2.06"/>
    <circle class="cls-1" cx="91.91" cy="146.06" r="2.06"/>
    <circle class="cls-1" cx="82.87" cy="133.9" r="2.06"/>
    <circle class="cls-1" cx="81.27" cy="140.56" r="2.06"/>
    <circle class="cls-1" cx="89.31" cy="117.04" r="2.06"/>
    <circle class="cls-1" cx="92.67" cy="122" r="2.06"/>
    <circle class="cls-1" cx="91.45" cy="127.51" r="2.06"/>
    <circle class="cls-1" cx="97.68" cy="128.23" r="2.06"/>
    <circle class="cls-1" cx="86.9" cy="122.36" r="2.06"/>
    <circle class="cls-1" cx="94.79" cy="116.61" r="2.06"/>
    <circle class="cls-1" cx="84.62" cy="128.16" r="2.06"/>
    <circle class="cls-1" cx="96.38" cy="134.65" r="2.06"/>
    <circle class="cls-1" cx="83.1" cy="160.35" r="2.06"/>
    <circle class="cls-1" cx="89.04" cy="160.87" r="2.06"/>
    <circle class="cls-1" cx="96.6" cy="166.15" r="2.06"/>
    <circle class="cls-1" cx="99.03" cy="171.58" r="2.06"/>
    <circle class="cls-1" cx="105.39" cy="169.5" r="2.06"/>
    <circle class="cls-1" cx="91.98" cy="172.39" r="2.06"/>
    <circle class="cls-1" cx="92.79" cy="152.9" r="2.06"/>
    <circle class="cls-1" cx="94.73" cy="159.51" r="2.06"/>
    <circle class="cls-1" cx="99.56" cy="157.9" r="2.06"/>
    <circle class="cls-1" cx="98.11" cy="150.82" r="2.06"/>
    <circle class="cls-1" cx="102.16" cy="163.82" r="2.06"/>
    <circle class="cls-1" cx="89.8" cy="132.94" r="2.06"/>
    <circle class="cls-1" cx="87.43" cy="155.73" r="2.06"/>
    <circle class="cls-1" cx="86.71" cy="138.12" r="2.06"/>
    <circle class="cls-1" cx="92.85" cy="139.55" r="2.06"/>
    <circle class="cls-1" cx="97.39" cy="143.75" r="2.06"/>
    <circle class="cls-1" cx="98.71" cy="122.39" r="2.06"/>
    <circle class="cls-1" cx="108.94" cy="94.08" r="2.06"/>
    <circle class="cls-1" cx="99.91" cy="101.31" r="2.06"/>
    <circle class="cls-1" cx="93.49" cy="110.98" r="2.06"/>
    <circle class="cls-1" cx="100.37" cy="110.88" r="2.06"/>
    <circle class="cls-1" cx="100.55" cy="116.49" r="2.06"/>
    <circle class="cls-1" cx="96.6" cy="105.71" r="2.06"/>
    <circle class="cls-1" cx="103.31" cy="105.92" r="2.06"/>
    <circle class="cls-1" cx="105.04" cy="98.7" r="2.06"/>
    <circle class="cls-1" cx="85.58" cy="172.79" r="2.06"/>
    <circle class="cls-1" cx="109.07" cy="174.52" r="2.06"/>
    <circle class="cls-1" cx="108.03" cy="186.21" r="2.06"/>
    <circle class="cls-1" cx="87.43" cy="184.17" r="2.06"/>
    <circle class="cls-1" cx="90.86" cy="188.82" r="2.06"/>
    <circle class="cls-1" cx="97.05" cy="188.98" r="2.06"/>
    <circle class="cls-1" cx="99.46" cy="195.03" r="2.06"/>
    <circle class="cls-1" cx="102.54" cy="188.6" r="2.06"/>
    <circle class="cls-1" cx="125.72" cy="195.96" r="2.06"/>
    <circle class="cls-1" cx="121.48" cy="199.94" r="2.06"/>
    <circle class="cls-1" cx="115.58" cy="201.16" r="2.06"/>
    <circle class="cls-1" cx="111.55" cy="205.07" r="2.06"/>
    <circle class="cls-1" cx="108.42" cy="211.14" r="2.06"/>
    <circle class="cls-1" cx="105.59" cy="216.89" r="2.06"/>
    <circle class="cls-1" cx="111.96" cy="221.61" r="2.06"/>
    <circle class="cls-1" cx="111.47" cy="216" r="2.06"/>
    <circle class="cls-1" cx="113.85" cy="210.32" r="2.06"/>
    <circle class="cls-1" cx="113.04" cy="227.82" r="2.06"/>
    <circle class="cls-1" cx="117.37" cy="215.81" r="2.06"/>
    <circle class="cls-1" cx="118.19" cy="221.33" r="2.06"/>
    <circle class="cls-1" cx="119.87" cy="227.31" r="2.06"/>
    <circle class="cls-1" cx="123.8" cy="216.34" r="2.06"/>
    <circle class="cls-1" cx="126.86" cy="210.12" r="2.06"/>
    <circle class="cls-1" cx="124.07" cy="221.93" r="2.06"/>
    <circle class="cls-1" cx="123.72" cy="205.15" r="2.06"/>
    <circle class="cls-1" cx="121.08" cy="211.17" r="2.06"/>
    <circle class="cls-1" cx="127.3" cy="226.67" r="2.06"/>
    <circle class="cls-1" cx="133.83" cy="225.18" r="2.06"/>
    <circle class="cls-1" cx="142.16" cy="218.58" r="2.06"/>
    <circle class="cls-1" cx="136.18" cy="218.8" r="2.06"/>
    <circle class="cls-1" cx="140.87" cy="223.82" r="2.06"/>
    <circle class="cls-1" cx="134.63" cy="211.41" r="2.06"/>
    <circle class="cls-1" cx="138.16" cy="206.83" r="2.06"/>
    <circle class="cls-1" cx="144.6" cy="210.05" r="2.06"/>
    <circle class="cls-1" cx="139.98" cy="213.53" r="2.06"/>
    <circle class="cls-1" cx="143.07" cy="203.91" r="2.06"/>
    <circle class="cls-1" cx="148.82" cy="205.67" r="2.06"/>
    <circle class="cls-1" cx="146.86" cy="199.64" r="2.06"/>
    <circle class="cls-1" cx="129.65" cy="220.5" r="2.06"/>
    <circle class="cls-1" cx="130.24" cy="214.9" r="2.06"/>
    <circle class="cls-1" cx="126.51" cy="185.48" r="2.06"/>
    <circle class="cls-1" cx="134.09" cy="188.02" r="2.06"/>
    <circle class="cls-1" cx="141.69" cy="189.31" r="2.06"/>
    <circle class="cls-1" cx="144.26" cy="194.28" r="2.06"/>
    <circle class="cls-1" cx="137.47" cy="193.53" r="2.06"/>
    <circle class="cls-1" cx="132.21" cy="196.97" r="2.06"/>
    <circle class="cls-1" cx="139.55" cy="198.82" r="2.06"/>
    <circle class="cls-1" cx="135.35" cy="201.88" r="2.06"/>
    <circle class="cls-1" cx="128.6" cy="200.96" r="2.06"/>
    <circle class="cls-1" cx="131.34" cy="206.91" r="2.06"/>
    <circle class="cls-1" cx="149.33" cy="190.29" r="2.06"/>
    <circle class="cls-1" cx="152.06" cy="195.25" r="2.06"/>
    <circle class="cls-1" cx="159.04" cy="202.88" r="2.06"/>
    <circle class="cls-1" cx="153.03" cy="200.61" r="2.06"/>
    <circle class="cls-1" cx="154.65" cy="206.29" r="2.06"/>
    <circle class="cls-1" cx="159.37" cy="216.85" r="2.06"/>
    <circle class="cls-1" cx="164.07" cy="213.5" r="2.06"/>
    <circle class="cls-1" cx="161.15" cy="208.57" r="2.06"/>
    <circle class="cls-1" cx="156.73" cy="211.95" r="2.06"/>
    <circle class="cls-1" cx="150.93" cy="211.46" r="2.06"/>
    <circle class="cls-1" cx="147.97" cy="216.35" r="2.06"/>
    <circle class="cls-1" cx="147.26" cy="221.69" r="2.06"/>
    <circle class="cls-1" cx="153.64" cy="219.16" r="2.06"/>
    <circle class="cls-1" cx="156.8" cy="191.26" r="2.06"/>
    <circle class="cls-1" cx="159.07" cy="196.94" r="2.06"/>
    <circle class="cls-1" cx="163.59" cy="193.14" r="2.06"/>
    <circle class="cls-1" cx="169.43" cy="196.23" r="2.06"/>
    <circle class="cls-1" cx="164.72" cy="199.47" r="2.06"/>
    <circle class="cls-1" cx="165.54" cy="204.83" r="2.06"/>
    <circle class="cls-1" cx="168.78" cy="208.89" r="2.06"/>
    <circle class="cls-1" cx="171.71" cy="202.24" r="2.06"/>
    <circle class="cls-1" cx="129.29" cy="191.71" r="2.06"/>
    <circle class="cls-1" cx="118.09" cy="206.26" r="2.06"/>
    <circle class="cls-1" cx="112.54" cy="190.79" r="2.06"/>
    <circle class="cls-1" cx="113.13" cy="196.31" r="2.06"/>
    <circle class="cls-1" cx="96.07" cy="199.93" r="2.06"/>
    <circle class="cls-1" cx="101.57" cy="201.86" r="2.06"/>
    <circle class="cls-1" cx="105.85" cy="206.01" r="2.06"/>
    <circle class="cls-1" cx="107.14" cy="199.48" r="2.06"/>
    <circle class="cls-1" cx="106.76" cy="193.87" r="2.06"/>
    <circle class="cls-1" cx="91.98" cy="204.97" r="2.06"/>
    <circle class="cls-1" cx="97.41" cy="207.29" r="2.06"/>
    <circle class="cls-1" cx="102.73" cy="210.52" r="2.06"/>
    <circle class="cls-1" cx="93.98" cy="183.51" r="2.06"/>
    <circle class="cls-1" cx="100.58" cy="182.81" r="2.06"/>
    <circle class="cls-1" cx="102.77" cy="176.46" r="2.06"/>
    <circle class="cls-1" cx="106.65" cy="180.55" r="2.06"/>
    <circle class="cls-1" cx="113.68" cy="178.18" r="2.06"/>
    <circle class="cls-1" cx="113.58" cy="183.73" r="2.06"/>
    <circle class="cls-1" cx="120" cy="181.78" r="2.06"/>
    <circle class="cls-1" cx="123.15" cy="190.74" r="2.06"/>
    <circle class="cls-1" cx="100.19" cy="215.49" r="2.06"/>
    <circle class="cls-1" cx="118.75" cy="187.29" r="2.06"/>
    <circle class="cls-1" cx="119.31" cy="194.69" r="2.06"/>
    <circle class="cls-1" cx="96.53" cy="177.73" r="2.06"/>
    <circle class="cls-1" cx="89.82" cy="178.42" r="2.06"/>
    <circle class="cls-1" cx="82.74" cy="188.22" r="2.06"/>
    <circle class="cls-1" cx="86.32" cy="192.84" r="2.06"/>
    <circle class="cls-1" cx="92.75" cy="194.25" r="2.06"/>
    <circle class="cls-1" cx="83.53" cy="178.83" r="2.06"/>
    <circle class="cls-1" cx="79.49" cy="183.6" r="2.06"/>
    <circle class="cls-1" cx="75.59" cy="189.37" r="2.06"/>
    <circle class="cls-1" cx="79.22" cy="193.65" r="2.06"/>
    <circle class="cls-1" cx="83.09" cy="198.04" r="2.06"/>
    <circle class="cls-1" cx="84.36" cy="205.21" r="2.06"/>
    <circle class="cls-1" cx="88.86" cy="210.52" r="2.06"/>
    <circle class="cls-1" cx="88.86" cy="199.89" r="2.06"/>
    <circle class="cls-1" cx="70.97" cy="215.07" r="2.06"/>
    <circle class="cls-1" cx="72.41" cy="220.41" r="2.06"/>
    <circle class="cls-1" cx="76.93" cy="215.95" r="2.06"/>
    <circle class="cls-1" cx="70.53" cy="192.62" r="2.06"/>
    <circle class="cls-1" cx="75.16" cy="198.03" r="2.06"/>
    <circle class="cls-1" cx="66.62" cy="172.26" r="2.06"/>
    <circle class="cls-1" cx="40.01" cy="181.45" r="2.06"/>
    <circle class="cls-1" cx="44.6" cy="185.31" r="2.06"/>
    <circle class="cls-1" cx="37.6" cy="186.59" r="2.06"/>
    <circle class="cls-1" cx="41.91" cy="190.71" r="2.06"/>
    <circle class="cls-1" cx="36.4" cy="192.46" r="2.06"/>
    <circle class="cls-1" cx="49.18" cy="116.09" r="2.06"/>
    <circle class="cls-1" cx="45.19" cy="98.17" r="2.06"/>
    <circle class="cls-1" cx="42.64" cy="92.44" r="2.06"/>
    <circle class="cls-1" cx="36.8" cy="90.3" r="2.06"/>
    <circle class="cls-1" cx="30.58" cy="89.65" r="2.06"/>
    <circle class="cls-1" cx="23.57" cy="91.18" r="2.06"/>
    <circle class="cls-1" cx="20.23" cy="96.5" r="2.06"/>
    <circle class="cls-1" cx="18.54" cy="102.81" r="2.06"/>
    <circle class="cls-1" cx="22.47" cy="107.71" r="2.06"/>
    <circle class="cls-1" cx="25.84" cy="102.11" r="2.06"/>
    <circle class="cls-1" cx="27.19" cy="95.96" r="2.06"/>
    <circle class="cls-1" cx="33.56" cy="95.37" r="2.06"/>
    <circle class="cls-1" cx="39.06" cy="97.61" r="2.06"/>
    <circle class="cls-1" cx="37.94" cy="103.25" r="2.06"/>
    <circle class="cls-1" cx="31.68" cy="100.76" r="2.06"/>
    <circle class="cls-1" cx="33.8" cy="107.64" r="2.06"/>
    <circle class="cls-1" cx="28.33" cy="107.94" r="2.06"/>
    <circle class="cls-1" cx="40.98" cy="108.94" r="2.06"/>
    <circle class="cls-1" cx="16.29" cy="91.57" r="2.06"/>
    <circle class="cls-1" cx="39.69" cy="119.6" r="2.06"/>
    <circle class="cls-1" cx="36.41" cy="130.44" r="2.06"/>
    <circle class="cls-1" cx="34.75" cy="141.1" r="2.06"/>
    <circle class="cls-1" cx="34.17" cy="146.75" r="2.06"/>
    <circle class="cls-1" cx="42.9" cy="131.86" r="2.06"/>
    <circle class="cls-1" cx="38.27" cy="136.23" r="2.06"/>
    <circle class="cls-1" cx="40" cy="142.51" r="2.06"/>
    <circle class="cls-1" cx="39.19" cy="150.16" r="2.06"/>
    <circle class="cls-1" cx="31.87" cy="152.78" r="2.06"/>
    <circle class="cls-1" cx="59.78" cy="135.85" r="2.06"/>
    <circle class="cls-1" cx="54.06" cy="138.78" r="2.06"/>
    <circle class="cls-1" cx="59.57" cy="142.82" r="2.06"/>
    <circle class="cls-1" cx="59.57" cy="149.81" r="2.06"/>
    <circle class="cls-1" cx="60.41" cy="157.01" r="2.06"/>
    <circle class="cls-1" cx="44.53" cy="154.31" r="2.06"/>
    <circle class="cls-1" cx="48.3" cy="142.45" r="2.06"/>
    <circle class="cls-1" cx="54.3" cy="145.52" r="2.06"/>
    <circle class="cls-1" cx="54.67" cy="153.61" r="2.06"/>
    <circle class="cls-1" cx="44.13" cy="146.62" r="2.06"/>
    <circle class="cls-1" cx="49.65" cy="149.93" r="2.06"/>
    <circle class="cls-1" cx="49.83" cy="156.92" r="2.06"/>
    <circle class="cls-1" cx="49.51" cy="163.28" r="2.06"/>
    <circle class="cls-1" cx="49.11" cy="169.62" r="2.06"/>
    <circle class="cls-1" cx="38.3" cy="176.09" r="2.06"/>
    <circle class="cls-1" cx="31.36" cy="186.16" r="2.06"/>
    <circle class="cls-1" cx="55.14" cy="159.92" r="2.06"/>
    <circle class="cls-1" cx="55.29" cy="166.61" r="2.06"/>
    <circle class="cls-1" cx="60.72" cy="163" r="2.06"/>
    <circle class="cls-1" cx="43.63" cy="159.73" r="2.06"/>
    <circle class="cls-1" cx="42.88" cy="165.9" r="2.06"/>
    <circle class="cls-1" cx="43.01" cy="172.17" r="2.06"/>
    <circle class="cls-1" cx="36.25" cy="170.11" r="2.06"/>
    <circle class="cls-1" cx="33.5" cy="180.32" r="2.06"/>
    <circle class="cls-1" cx="30.65" cy="173.82" r="2.06"/>
    <circle class="cls-1" cx="27.51" cy="181.12" r="2.06"/>
    <circle class="cls-1" cx="37.33" cy="156.39" r="2.06"/>
    <circle class="cls-1" cx="31.13" cy="129.81" r="2.06"/>
    <circle class="cls-1" cx="25.33" cy="131.47" r="2.06"/>
    <circle class="cls-1" cx="24.97" cy="163.43" r="2.06"/>
    <circle class="cls-1" cx="26.22" cy="155.76" r="2.06"/>
    <circle class="cls-1" cx="31.07" cy="159.99" r="2.06"/>
    <circle class="cls-1" cx="37.33" cy="163.11" r="2.06"/>
    <circle class="cls-1" cx="26.38" cy="169.53" r="2.06"/>
    <circle class="cls-1" cx="31.38" cy="166.08" r="2.06"/>
    <circle class="cls-1" cx="23.71" cy="175.81" r="2.06"/>
    <circle class="cls-1" cx="28.33" cy="142.24" r="2.06"/>
    <circle class="cls-1" cx="16.99" cy="164.21" r="2.06"/>
    <circle class="cls-1" cx="19.81" cy="169.37" r="2.06"/>
    <circle class="cls-1" cx="20.46" cy="159.1" r="2.06"/>
    <circle class="cls-1" cx="27.95" cy="147.89" r="2.06"/>
    <circle class="cls-1" cx="31.75" cy="135.92" r="2.06"/>
    <circle class="cls-1" cx="37.37" cy="124.87" r="2.06"/>
    <circle class="cls-1" cx="10.39" cy="111.67" r="2.06"/>
    <circle class="cls-1" cx="14.81" cy="122.14" r="2.06"/>
    <circle class="cls-1" cx="19.21" cy="126.11" r="2.06"/>
    <circle class="cls-1" cx="25.37" cy="126.03" r="2.06"/>
    <circle class="cls-1" cx="19.53" cy="132.19" r="2.06"/>
    <circle class="cls-1" cx="25.8" cy="137.11" r="2.06"/>
    <circle class="cls-1" cx="31.33" cy="124.44" r="2.06"/>
    <circle class="cls-1" cx="8.83" cy="131.94" r="2.06"/>
    <circle class="cls-1" cx="14.32" cy="128.64" r="2.06"/>
    <circle class="cls-1" cx="13.89" cy="134.8" r="2.06"/>
    <circle class="cls-1" cx="19.83" cy="138.16" r="2.06"/>
    <circle class="cls-1" cx="22.12" cy="143.79" r="2.06"/>
    <circle class="cls-1" cx="22.85" cy="150.21" r="2.06"/>
    <circle class="cls-1" cx="17.07" cy="147.02" r="2.06"/>
    <circle class="cls-1" cx="18" cy="153.65" r="2.06"/>
    <circle class="cls-1" cx="14.88" cy="141.42" r="2.06"/>
    <circle class="cls-1" cx="12.15" cy="151.51" r="2.06"/>
    <circle class="cls-1" cx="14.33" cy="158.35" r="2.06"/>
    <circle class="cls-1" cx="10.73" cy="145.65" r="2.06"/>
    <circle class="cls-1" cx="9.33" cy="138.28" r="2.06"/>
    <circle class="cls-1" cx="8.94" cy="124.84" r="2.06"/>
    <circle class="cls-1" cx="9.35" cy="118.11" r="2.06"/>
    <circle class="cls-1" cx="16.19" cy="109.29" r="2.06"/>
    <circle class="cls-1" cx="11.76" cy="104.22" r="2.06"/>
    <circle class="cls-1" cx="13.76" cy="97.73" r="2.06"/>
    <circle class="cls-1" cx="22.01" cy="114.11" r="2.06"/>
    <circle class="cls-1" cx="28.02" cy="119.88" r="2.06"/>
    <circle class="cls-1" cx="21.2" cy="120.51" r="2.06"/>
    <circle class="cls-1" cx="15.19" cy="115.95" r="2.06"/>
    <circle class="cls-1" cx="243.85" cy="30.75" r="2.06"/>
    <circle class="cls-1" cx="236.74" cy="27.72" r="2.06"/>
    <circle class="cls-1" cx="236.9" cy="21.81" r="2.06"/>
    <circle class="cls-1" cx="239.5" cy="53.22" r="2.06"/>
    <circle class="cls-1" cx="231.94" cy="52.42" r="2.06"/>
    <circle class="cls-1" cx="246.13" cy="56.03" r="2.06"/>
    <circle class="cls-1" cx="238.76" cy="64.44" r="2.06"/>
    <circle class="cls-1" cx="240.77" cy="70.47" r="2.06"/>
    <circle class="cls-1" cx="238.05" cy="58.27" r="2.06"/>
    <circle class="cls-1" cx="234.53" cy="69.8" r="2.06"/>
    <circle class="cls-1" cx="247.86" cy="93.36" r="2.06"/>
    <circle class="cls-1" cx="253.21" cy="89.33" r="2.06"/>
    <circle class="cls-1" cx="254.35" cy="96.32" r="2.06"/>
    <circle class="cls-1" cx="262.5" cy="87.75" r="2.06"/>
    <circle class="cls-1" cx="224.12" cy="24.35" r="2.06"/>
    <circle class="cls-1" cx="217.72" cy="22.25" r="2.06"/>
    <circle class="cls-1" cx="213.55" cy="27.11" r="2.06"/>
    <circle class="cls-1" cx="214.83" cy="35.76" r="2.06"/>
    <circle class="cls-1" cx="221.29" cy="36.45" r="2.06"/>
    <circle class="cls-1" cx="223.49" cy="42.93" r="2.06"/>
    <circle class="cls-1" cx="217.23" cy="41.4" r="2.06"/>
    <circle class="cls-1" cx="213.01" cy="46.22" r="2.06"/>
    <circle class="cls-1" cx="209.99" cy="40.53" r="2.06"/>
    <circle class="cls-1" cx="204.14" cy="43.31" r="2.06"/>
    <circle class="cls-1" cx="206.84" cy="49" r="2.06"/>
    <circle class="cls-1" cx="213.18" cy="52.25" r="2.06"/>
    <circle class="cls-1" cx="212.98" cy="57.84" r="2.06"/>
    <circle class="cls-1" cx="207.12" cy="54.51" r="2.06"/>
    <circle class="cls-1" cx="207.45" cy="59.91" r="2.06"/>
    <circle class="cls-1" cx="196.78" cy="61.08" r="2.06"/>
    <circle class="cls-1" cx="217.33" cy="67.02" r="2.06"/>
    <circle class="cls-1" cx="212.81" cy="72.37" r="2.06"/>
    <circle class="cls-1" cx="218.88" cy="60.63" r="2.06"/>
    <circle class="cls-1" cx="224.55" cy="62.8" r="2.06"/>
    <circle class="cls-1" cx="222.92" cy="68.52" r="2.06"/>
    <circle class="cls-1" cx="225.98" cy="56.81" r="2.06"/>
    <circle class="cls-1" cx="208.15" cy="67.5" r="2.06"/>
    <circle class="cls-1" cx="202.3" cy="63.88" r="2.06"/>
    <circle class="cls-1" cx="212.29" cy="63.83" r="2.06"/>
    <circle class="cls-1" cx="190.52" cy="58.48" r="2.06"/>
    <circle class="cls-1" cx="195.92" cy="54.66" r="2.06"/>
    <circle class="cls-1" cx="201.66" cy="57.19" r="2.06"/>
    <circle class="cls-1" cx="200.74" cy="50.49" r="2.06"/>
    <circle class="cls-1" cx="203.71" cy="37.37" r="2.06"/>
    <circle class="cls-1" cx="219.67" cy="48.04" r="2.06"/>
    <circle class="cls-1" cx="219.61" cy="54.35" r="2.06"/>
    <circle class="cls-1" cx="197.2" cy="38.38" r="2.06"/>
    <circle class="cls-1" cx="190.8" cy="35.56" r="2.06"/>
    <circle class="cls-1" cx="184.27" cy="34.25" r="2.06"/>
    <circle class="cls-1" cx="172.2" cy="35.1" r="2.06"/>
    <circle class="cls-1" cx="178.43" cy="40.98" r="2.06"/>
    <circle class="cls-1" cx="191.94" cy="41.73" r="2.06"/>
    <circle class="cls-1" cx="198.02" cy="44.53" r="2.06"/>
    <circle class="cls-1" cx="188.69" cy="46.49" r="2.06"/>
    <circle class="cls-1" cx="194.61" cy="49.34" r="2.06"/>
    <circle class="cls-1" cx="189.18" cy="52.17" r="2.06"/>
    <circle class="cls-1" cx="165.11" cy="34.68" r="2.06"/>
    <circle class="cls-1" cx="164.91" cy="44.39" r="2.06"/>
    <circle class="cls-1" cx="176.18" cy="48.74" r="2.06"/>
    <circle class="cls-1" cx="168.79" cy="39.9" r="2.06"/>
    <circle class="cls-1" cx="173.19" cy="43.46" r="2.06"/>
    <circle class="cls-1" cx="169.72" cy="48.42" r="2.06"/>
    <circle class="cls-1" cx="172.19" cy="54.27" r="2.06"/>
    <circle class="cls-1" cx="153.5" cy="40.44" r="2.06"/>
    <circle class="cls-1" cx="158.32" cy="44.2" r="2.06"/>
    <circle class="cls-1" cx="162.31" cy="49.45" r="2.06"/>
    <circle class="cls-1" cx="156.06" cy="49.89" r="2.06"/>
    <circle class="cls-1" cx="161.46" cy="39.37" r="2.06"/>
    <circle class="cls-1" cx="157.3" cy="35" r="2.06"/>
    <circle class="cls-1" cx="159.39" cy="54.59" r="2.06"/>
    <circle class="cls-1" cx="166" cy="53.77" r="2.06"/>
    <circle class="cls-1" cx="153.08" cy="55.17" r="2.06"/>
    <circle class="cls-1" cx="151.66" cy="46.19" r="2.06"/>
    <circle class="cls-1" cx="148.73" cy="51.38" r="2.06"/>
    <circle class="cls-1" cx="178.42" cy="54.97" r="2.06"/>
    <circle class="cls-1" cx="184.64" cy="56.22" r="2.06"/>
    <circle class="cls-1" cx="182.74" cy="50.12" r="2.06"/>
    <circle class="cls-1" cx="183.22" cy="44.81" r="2.06"/>
    <circle class="cls-1" cx="185.85" cy="39.76" r="2.06"/>
    <circle class="cls-1" cx="225.64" cy="50.82" r="2.06"/>
    <circle class="cls-1" cx="231.43" cy="64.92" r="2.06"/>
    <circle class="cls-1" cx="246.83" cy="87.08" r="2.06"/>
    <circle class="cls-1" cx="231.94" cy="58.98" r="2.06"/>
    <circle class="cls-1" cx="229.14" cy="45.58" r="2.06"/>
    <circle class="cls-1" cx="210.9" cy="20.7" r="2.06"/>
    <circle class="cls-1" cx="204.55" cy="20.51" r="2.06"/>
    <circle class="cls-1" cx="207.08" cy="27.18" r="2.06"/>
    <circle class="cls-1" cx="208.9" cy="33.66" r="2.06"/>
    <circle class="cls-1" cx="202.32" cy="31.48" r="2.06"/>
    <circle class="cls-1" cx="195.59" cy="13.14" r="2.06"/>
    <circle class="cls-1" cx="189.11" cy="12.48" r="2.06"/>
    <circle class="cls-1" cx="182.88" cy="12.06" r="2.06"/>
    <circle class="cls-1" cx="185.64" cy="17.85" r="2.06"/>
    <circle class="cls-1" cx="177.84" cy="23.85" r="2.06"/>
    <circle class="cls-1" cx="172.93" cy="17.68" r="2.06"/>
    <circle class="cls-1" cx="166.61" cy="18.53" r="2.06"/>
    <circle class="cls-1" cx="160.36" cy="17.58" r="2.06"/>
    <circle class="cls-1" cx="162.79" cy="11.65" r="2.06"/>
    <circle class="cls-1" cx="155.86" cy="12.32" r="2.06"/>
    <circle class="cls-1" cx="149.47" cy="12.76" r="2.06"/>
    <circle class="cls-1" cx="148.07" cy="19.16" r="2.06"/>
    <circle class="cls-1" cx="191.33" cy="18.82" r="2.06"/>
    <circle class="cls-1" cx="183.84" cy="23.67" r="2.06"/>
    <circle class="cls-1" cx="181.58" cy="29.09" r="2.06"/>
    <circle class="cls-1" cx="177.93" cy="34.68" r="2.06"/>
    <circle class="cls-1" cx="174.96" cy="29.28" r="2.06"/>
    <circle class="cls-1" cx="172.08" cy="23.52" r="2.06"/>
    <circle class="cls-1" cx="168.62" cy="29.86" r="2.06"/>
    <circle class="cls-1" cx="161.61" cy="30.18" r="2.06"/>
    <circle class="cls-1" cx="151.39" cy="23.93" r="2.06"/>
    <circle class="cls-1" cx="155.42" cy="28.66" r="2.06"/>
    <circle class="cls-1" cx="150.78" cy="34.95" r="2.06"/>
    <circle class="cls-1" cx="144.44" cy="36.93" r="2.06"/>
    <circle class="cls-1" cx="147.36" cy="42.06" r="2.06"/>
    <circle class="cls-1" cx="144.86" cy="47.2" r="2.06"/>
    <circle class="cls-1" cx="141.7" cy="52.28" r="2.06"/>
    <circle class="cls-1" cx="137.94" cy="38.12" r="2.06"/>
    <circle class="cls-1" cx="141.14" cy="43.09" r="2.06"/>
    <circle class="cls-1" cx="132.57" cy="59.26" r="2.06"/>
    <circle class="cls-1" cx="137.54" cy="48.85" r="2.06"/>
    <circle class="cls-1" cx="134.89" cy="53.7" r="2.06"/>
    <circle class="cls-1" cx="139.33" cy="58.24" r="2.06"/>
    <circle class="cls-1" cx="134.47" cy="43.47" r="2.06"/>
    <circle class="cls-1" cx="128.06" cy="44.22" r="2.06"/>
    <circle class="cls-1" cx="121.47" cy="45.44" r="2.06"/>
    <circle class="cls-1" cx="124.22" cy="50.57" r="2.06"/>
    <circle class="cls-1" cx="128.43" cy="54.36" r="2.06"/>
    <circle class="cls-1" cx="130.7" cy="49.42" r="2.06"/>
    <circle class="cls-1" cx="146.11" cy="56.99" r="2.06"/>
    <circle class="cls-1" cx="141.62" cy="31.83" r="2.06"/>
    <circle class="cls-1" cx="144.77" cy="25.1" r="2.06"/>
    <circle class="cls-1" cx="148.81" cy="29.56" r="2.06"/>
    <circle class="cls-1" cx="137.98" cy="26.7" r="2.06"/>
    <circle class="cls-1" cx="141.78" cy="13.66" r="2.06"/>
    <circle class="cls-1" cx="140.63" cy="19.9" r="2.06"/>
    <circle class="cls-1" cx="134" cy="21.23" r="2.06"/>
    <circle class="cls-1" cx="134.82" cy="14.66" r="2.06"/>
    <circle class="cls-1" cx="127.37" cy="15.93" r="2.06"/>
    <circle class="cls-1" cx="119.75" cy="17.42" r="2.06"/>
    <circle class="cls-1" cx="111.63" cy="19.57" r="2.06"/>
    <circle class="cls-1" cx="109.48" cy="25.87" r="2.06"/>
    <circle class="cls-1" cx="116.93" cy="23.55" r="2.06"/>
    <circle class="cls-1" cx="125.22" cy="22.22" r="2.06"/>
    <circle class="cls-1" cx="106.83" cy="39.95" r="2.06"/>
    <circle class="cls-1" cx="112.79" cy="36.97" r="2.06"/>
    <circle class="cls-1" cx="114.78" cy="30.34" r="2.06"/>
    <circle class="cls-1" cx="122.07" cy="28.52" r="2.06"/>
    <circle class="cls-1" cx="130.19" cy="26.53" r="2.06"/>
    <circle class="cls-1" cx="134.17" cy="32.17" r="2.06"/>
    <circle class="cls-1" cx="131.68" cy="38.3" r="2.06"/>
    <circle class="cls-1" cx="124.89" cy="38.96" r="2.06"/>
    <circle class="cls-1" cx="119.92" cy="34.65" r="2.06"/>
    <circle class="cls-1" cx="111.15" cy="44.87" r="2.06"/>
    <circle class="cls-1" cx="127.7" cy="32.66" r="2.06"/>
    <circle class="cls-1" cx="104.5" cy="47.13" r="2.06"/>
    <circle class="cls-1" cx="198.35" cy="19" r="2.06"/>
    <circle class="cls-1" cx="195.62" cy="25.28" r="2.06"/>
    <circle class="cls-1" cx="201.22" cy="25.38" r="2.06"/>
    <circle class="cls-1" cx="176.31" cy="11.79" r="2.06"/>
    <circle class="cls-1" cx="169.38" cy="11.79" r="2.06"/>
    <circle class="cls-1" cx="179.28" cy="17.27" r="2.06"/>
    <circle class="cls-1" cx="230.26" cy="20.02" r="2.06"/>
    <circle class="cls-1" cx="223.62" cy="18.23" r="2.06"/>
    <circle class="cls-1" cx="216.71" cy="16.54" r="2.06"/>
    <circle class="cls-1" cx="209.23" cy="15.1" r="2.06"/>
    <circle class="cls-1" cx="202.23" cy="13.98" r="2.06"/>
    <circle class="cls-1" cx="230.19" cy="26.72" r="2.06"/>
    <circle class="cls-1" cx="219.35" cy="29.51" r="2.06"/>
    <circle class="cls-1" cx="195.74" cy="31.55" r="2.06"/>
    <circle class="cls-1" cx="188.65" cy="29.72" r="2.06"/>
    <circle class="cls-1" cx="189.89" cy="24.08" r="2.06"/>
    <circle class="cls-1" cx="165.6" cy="24.85" r="2.06"/>
    <circle class="cls-1" cx="159.31" cy="23.54" r="2.06"/>
    <circle class="cls-1" cx="154.43" cy="18.72" r="2.06"/>
    <circle class="cls-1" cx="288.44" cy="76.63" r="2.06"/>
    <circle class="cls-1" cx="282.08" cy="74.15" r="2.06"/>
    <circle class="cls-1" cx="278.85" cy="62.78" r="2.06"/>
    <circle class="cls-1" cx="278.87" cy="69.85" r="2.06"/>
    <circle class="cls-1" cx="273.98" cy="67.03" r="2.06"/>
    <circle class="cls-1" cx="277.09" cy="79.23" r="2.06"/>
    <circle class="cls-1" cx="282.82" cy="79.61" r="2.06"/>
    <circle class="cls-1" cx="266.65" cy="101.53" r="2.06"/>
    <circle class="cls-1" cx="271.13" cy="97.3" r="2.06"/>
    <circle class="cls-1" cx="277.18" cy="94.35" r="2.06"/>
    <circle class="cls-1" cx="269.27" cy="91.01" r="2.06"/>
    <circle class="cls-1" cx="268.48" cy="70.24" r="2.06"/>
    <circle class="cls-1" cx="269.06" cy="78.71" r="2.06"/>
    <circle class="cls-1" cx="274.04" cy="73.98" r="2.06"/>
    <circle class="cls-1" cx="37.53" cy="78.42" r="2.06"/>
    <circle class="cls-1" cx="45.94" cy="70.27" r="2.06"/>
    <circle class="cls-1" cx="52.85" cy="70.59" r="2.06"/>
    <circle class="cls-1" cx="32.22" cy="67.53" r="2.06"/>
    <circle class="cls-1" cx="34.66" cy="73.79" r="2.06"/>
    <circle class="cls-1" cx="39.52" cy="69" r="2.06"/>
    <circle class="cls-1" cx="47.45" cy="52.34" r="2.06"/>
    <circle class="cls-1" cx="43.62" cy="63.32" r="2.06"/>
    <circle class="cls-1" cx="49.51" cy="64.96" r="2.06"/>
    <circle class="cls-1" cx="57.38" cy="66.08" r="2.06"/>
    <circle class="cls-1" cx="55.03" cy="60.96" r="2.06"/>
    <circle class="cls-1" cx="60.57" cy="57.38" r="2.06"/>
    <circle class="cls-1" cx="65.77" cy="53.39" r="2.06"/>
    <circle class="cls-1" cx="72.79" cy="61.65" r="2.06"/>
    <circle class="cls-1" cx="72.64" cy="55.01" r="2.06"/>
    <circle class="cls-1" cx="78.26" cy="51.89" r="2.06"/>
    <circle class="cls-1" cx="78.26" cy="58.09" r="2.06"/>
    <circle class="cls-1" cx="83.76" cy="48.38" r="2.06"/>
    <circle class="cls-1" cx="88.79" cy="44.41" r="2.06"/>
    <circle class="cls-1" cx="90.66" cy="50.65" r="2.06"/>
    <circle class="cls-1" cx="64.88" cy="46.51" r="2.06"/>
    <circle class="cls-1" cx="70.31" cy="49.38" r="2.06"/>
    <circle class="cls-1" cx="67.43" cy="58.65" r="2.06"/>
    <circle class="cls-1" cx="76.46" cy="45.95" r="2.06"/>
    <circle class="cls-1" cx="82.36" cy="42.48" r="2.06"/>
    <circle class="cls-1" cx="88.28" cy="38.05" r="2.06"/>
    <circle class="cls-1" cx="94.76" cy="42.66" r="2.06"/>
    <circle class="cls-1" cx="94.73" cy="36.42" r="2.06"/>
    <circle class="cls-1" cx="96.95" cy="24.22" r="2.06"/>
    <circle class="cls-1" cx="83.14" cy="29.8" r="2.06"/>
    <circle class="cls-1" cx="70.63" cy="43.2" r="2.06"/>
    <circle class="cls-1" cx="76.71" cy="39.41" r="2.06"/>
    <circle class="cls-1" cx="82.6" cy="35.98" r="2.06"/>
    <circle class="cls-1" cx="89.16" cy="32.28" r="2.06"/>
    <circle class="cls-1" cx="90.18" cy="26.72" r="2.06"/>
    <circle class="cls-1" cx="85.14" cy="54.59" r="2.06"/>
    <circle class="cls-1" cx="83.95" cy="60.6" r="2.06"/>
    <circle class="cls-1" cx="95.87" cy="61.85" r="2.06"/>
    <circle class="cls-1" cx="97.05" cy="48.32" r="2.06"/>
    <circle class="cls-1" cx="79.28" cy="65.16" r="2.06"/>
    <circle class="cls-1" cx="49.06" cy="58.71" r="2.06"/>
    <circle class="cls-1" cx="58.65" cy="43.81" r="2.06"/>
    <circle class="cls-1" cx="52.96" cy="47.97" r="2.06"/>
    <circle class="cls-1" cx="54.87" cy="54.94" r="2.06"/>
    <circle class="cls-1" cx="26.5" cy="84.93" r="2.06"/>
    <circle class="cls-1" cx="34.09" cy="84.77" r="2.06"/>
    <circle class="cls-1" cx="41.38" cy="84.55" r="2.06"/>
    <circle class="cls-1" cx="47.23" cy="82.06" r="2.06"/>
    <circle class="cls-1" cx="53.74" cy="83.61" r="2.06"/>
    <circle class="cls-1" cx="61.29" cy="82.47" r="2.06"/>
    <circle class="cls-1" cx="66.39" cy="85.81" r="2.06"/>
    <circle class="cls-1" cx="61.43" cy="89.26" r="2.06"/>
    <circle class="cls-1" cx="56.84" cy="94.95" r="2.06"/>
    <circle class="cls-1" cx="57.21" cy="101.72" r="2.06"/>
    <circle class="cls-1" cx="49.96" cy="94.09" r="2.06"/>
    <circle class="cls-1" cx="55.24" cy="89.24" r="2.06"/>
    <circle class="cls-1" cx="47.18" cy="88.44" r="2.06"/>
    <circle class="cls-1" cx="59.63" cy="50.57" r="2.06"/>
    <circle class="cls-1" cx="64.54" cy="40.05" r="2.06"/>
    <circle class="cls-1" cx="70.11" cy="36.7" r="2.06"/>
    <circle class="cls-1" cx="76.84" cy="32.94" r="2.06"/>
    <circle class="cls-1" cx="36.41" cy="62.9" r="2.06"/>
    <circle class="cls-1" cx="41.83" cy="57.19" r="2.06"/>
    <circle class="cls-1" cx="30.35" cy="79.9" r="2.06"/>
    <circle class="cls-1" cx="19.45" cy="85.54" r="2.06"/>
    <circle class="cls-1" cx="27.91" cy="72.94" r="2.06"/>
    <circle class="cls-1" cx="23.6" cy="78.89" r="2.06"/>
    <circle class="cls-1" cx="43.7" cy="76.38" r="2.06"/>
    <circle class="cls-1" cx="69.2" cy="80.34" r="2.06"/>
    <circle class="cls-1" cx="75.14" cy="81.56" r="2.06"/>
    <circle class="cls-1" cx="89.62" cy="62.9" r="2.06"/>
    <circle class="cls-1" cx="86.09" cy="67.65" r="2.06"/>
    <circle class="cls-1" cx="93.67" cy="67.84" r="2.06"/>
    <circle class="cls-1" cx="100.6" cy="41.73" r="2.06"/>
    <circle class="cls-1" cx="101.83" cy="35.09" r="2.06"/>
    <circle class="cls-1" cx="107.99" cy="32.83" r="2.06"/>
    <circle class="cls-1" cx="96.37" cy="30.72" r="2.06"/>
    <circle class="cls-1" cx="102.85" cy="28.35" r="2.06"/>
    <circle class="cls-1" cx="103.61" cy="21.97" r="2.06"/>
    <circle class="cls-1" cx="99.04" cy="54.37" r="2.06"/>
    <circle class="cls-1" cx="92.3" cy="56.63" r="2.06"/>
    <circle class="cls-1" cx="100.45" cy="67.56" r="2.06"/>
    <circle class="cls-1" cx="101.85" cy="60.5" r="2.06"/>
    <circle class="cls-1" cx="119.11" cy="61.72" r="2.06"/>
    <circle class="cls-1" cx="112.61" cy="64.01" r="2.06"/>
    <circle class="cls-1" cx="107.93" cy="59.42" r="2.06"/>
    <circle class="cls-1" cx="105.5" cy="53.54" r="2.06"/>
    <circle class="cls-1" cx="125.63" cy="60.18" r="2.06"/>
    <circle class="cls-1" cx="119.94" cy="54.98" r="2.06"/>
    <circle class="cls-1" cx="117.64" cy="40.8" r="2.06"/>
    <circle class="cls-1" cx="111.3" cy="51.39" r="2.06"/>
    <circle class="cls-1" cx="116.74" cy="48.77" r="2.06"/>
    <circle class="cls-1" cx="113.71" cy="57.11" r="2.06"/>
    <circle class="cls-1" cx="106.68" cy="66.03" r="2.06"/>
    <circle class="cls-1" cx="50.64" cy="76.61" r="2.06"/>
    <circle class="cls-1" cx="56.59" cy="77.96" r="2.06"/>
    <circle class="cls-1" cx="59.9" cy="71.67" r="2.06"/>
    <circle class="cls-1" cx="64.14" cy="76.67" r="2.06"/>
    <circle class="cls-1" cx="326.52" cy="99.55" r="2.06"/>
    <circle class="cls-1" cx="323.88" cy="92.3" r="2.06"/>
    <circle class="cls-1" cx="320.38" cy="97.37" r="2.06"/>
    <circle class="cls-1" cx="297.5" cy="81.87" r="2.06"/>
    <circle class="cls-1" cx="302.37" cy="85.72" r="2.06"/>
    <circle class="cls-1" cx="289.97" cy="82.38" r="2.06"/>
    <circle class="cls-1" cx="293.27" cy="87.75" r="2.06"/>
    <circle class="cls-1" cx="320.67" cy="86.36" r="2.06"/>
    <circle class="cls-1" cx="314.91" cy="85.5" r="2.06"/>
    <circle class="cls-1" cx="317.36" cy="91.89" r="2.06"/>
    <circle class="cls-1" cx="317.13" cy="79.71" r="2.06"/>
    <circle class="cls-1" cx="265.66" cy="139.25" r="2.06"/>
    <circle class="cls-1" cx="261.86" cy="144.95" r="2.06"/>
    <circle class="cls-1" cx="263.38" cy="150.79" r="2.06"/>
    <circle class="cls-1" cx="257.16" cy="150.91" r="2.06"/>
    <circle class="cls-1" cx="250.95" cy="152.82" r="2.06"/>
    <circle class="cls-1" cx="250.82" cy="171.21" r="2.06"/>
    <circle class="cls-1" cx="249.3" cy="146.86" r="2.06"/>
    <circle class="cls-1" cx="249.17" cy="136.08" r="2.06"/>
    <circle class="cls-1" cx="251.33" cy="141.15" r="2.06"/>
    <circle class="cls-1" cx="255.64" cy="145.21" r="2.06"/>
    <circle class="cls-1" cx="260.21" cy="156.37" r="2.06"/>
    <circle class="cls-1" cx="254.37" cy="158.02" r="2.06"/>
    <circle class="cls-1" cx="260.46" cy="161.95" r="2.06"/>
    <circle class="cls-1" cx="255.13" cy="164.74" r="2.06"/>
    <circle class="cls-1" cx="249.55" cy="164.87" r="2.06"/>
    <circle class="cls-1" cx="261.86" cy="134.43" r="2.06"/>
    <circle class="cls-1" cx="258.94" cy="127.96" r="2.06"/>
    <circle class="cls-1" cx="255.26" cy="133.67" r="2.06"/>
    <circle class="cls-1" cx="247.8" cy="130.33" r="2.06"/>
    <circle class="cls-1" cx="244.48" cy="125.17" r="2.06"/>
    <circle class="cls-1" cx="236.13" cy="122.8" r="2.06"/>
    <circle class="cls-1" cx="238.86" cy="127.58" r="2.06"/>
    <circle class="cls-1" cx="242.91" cy="133.61" r="2.06"/>
    <circle class="cls-1" cx="245.03" cy="140.65" r="2.06"/>
    <circle class="cls-1" cx="241.06" cy="145.08" r="2.06"/>
    <circle class="cls-1" cx="239.09" cy="138.95" r="2.06"/>
    <circle class="cls-1" cx="237.29" cy="132.96" r="2.06"/>
    <circle class="cls-1" cx="231.37" cy="126.68" r="2.06"/>
    <circle class="cls-1" cx="224.34" cy="124.61" r="2.06"/>
    <circle class="cls-1" cx="258.69" cy="139.25" r="2.06"/>
    <circle class="cls-1" cx="252.47" cy="126.69" r="2.06"/>
    <circle class="cls-1" cx="282.13" cy="132.21" r="2.06"/>
    <circle class="cls-1" cx="295.19" cy="167.11" r="2.06"/>
    <circle class="cls-1" cx="300.78" cy="164.65" r="2.06"/>
    <circle class="cls-1" cx="298.02" cy="172.39" r="2.06"/>
    <circle class="cls-1" cx="301.35" cy="178.37" r="2.06"/>
    <circle class="cls-1" cx="308.67" cy="167.01" r="2.06"/>
    <circle class="cls-1" cx="238.03" cy="232.14" r="2.06"/>
    <circle class="cls-1" cx="232.31" cy="234.33" r="2.06"/>
    <circle class="cls-1" cx="227.58" cy="230.31" r="2.06"/>
    <circle class="cls-1" cx="225.91" cy="236.67" r="2.06"/>
    <circle class="cls-1" cx="221.85" cy="232.74" r="2.06"/>
    <circle class="cls-1" cx="226.45" cy="224.76" r="2.06"/>
    <circle class="cls-1" cx="233.3" cy="226.9" r="2.06"/>
    <circle class="cls-1" cx="218.32" cy="238.34" r="2.06"/>
    <circle class="cls-1" cx="264.62" cy="208.62" r="2.06"/>
    <circle class="cls-1" cx="264.56" cy="202.62" r="2.06"/>
    <circle class="cls-1" cx="258.69" cy="205.39" r="2.06"/>
    <circle class="cls-1" cx="252.91" cy="208.99" r="2.06"/>
    <circle class="cls-1" cx="253.56" cy="201.77" r="2.06"/>
    <circle class="cls-1" cx="247.75" cy="198.8" r="2.06"/>
    <circle class="cls-1" cx="252.73" cy="195.67" r="2.06"/>
    <circle class="cls-1" cx="247.53" cy="192.61" r="2.06"/>
    <circle class="cls-1" cx="242.32" cy="195.07" r="2.06"/>
    <circle class="cls-1" cx="236.18" cy="196.11" r="2.06"/>
    <circle class="cls-1" cx="229.99" cy="191.62" r="2.06"/>
    <circle class="cls-1" cx="235.91" cy="190.25" r="2.06"/>
    <circle class="cls-1" cx="241.83" cy="189.48" r="2.06"/>
    <circle class="cls-1" cx="247.09" cy="186.96" r="2.06"/>
    <circle class="cls-1" cx="251.84" cy="182.75" r="2.06"/>
    <circle class="cls-1" cx="257.88" cy="186.63" r="2.06"/>
    <circle class="cls-1" cx="264.3" cy="184.77" r="2.06"/>
    <circle class="cls-1" cx="259.15" cy="181.26" r="2.06"/>
    <circle class="cls-1" cx="253.06" cy="189.43" r="2.06"/>
    <circle class="cls-1" cx="230.43" cy="197.92" r="2.06"/>
    <circle class="cls-1" cx="258.12" cy="199.13" r="2.06"/>
    <circle class="cls-1" cx="263.89" cy="196.46" r="2.06"/>
    <circle class="cls-1" cx="246.51" cy="211" r="2.06"/>
    <circle class="cls-1" cx="240.78" cy="213.68" r="2.06"/>
    <circle class="cls-1" cx="229.89" cy="210.21" r="2.06"/>
    <circle class="cls-1" cx="234.05" cy="214.53" r="2.06"/>
    <circle class="cls-1" cx="236" cy="209.05" r="2.06"/>
    <circle class="cls-1" cx="230.67" cy="204.13" r="2.06"/>
    <circle class="cls-1" cx="236.54" cy="202.41" r="2.06"/>
    <circle class="cls-1" cx="242.45" cy="201.24" r="2.06"/>
    <circle class="cls-1" cx="248.1" cy="204.79" r="2.06"/>
    <circle class="cls-1" cx="242" cy="207.26" r="2.06"/>
    <circle class="cls-1" cx="272.26" cy="211.07" r="2.06"/>
    <circle class="cls-1" cx="276.72" cy="214.33" r="2.06"/>
    <circle class="cls-1" cx="269.9" cy="205.26" r="2.06"/>
    <circle class="cls-1" cx="263.46" cy="221.76" r="2.06"/>
    <circle class="cls-1" cx="257.43" cy="224.77" r="2.06"/>
    <circle class="cls-1" cx="261.41" cy="216.3" r="2.06"/>
    <circle class="cls-1" cx="256.92" cy="219.1" r="2.06"/>
    <circle class="cls-1" cx="252.78" cy="214.47" r="2.06"/>
    <circle class="cls-1" cx="258.14" cy="211.43" r="2.06"/>
    <circle class="cls-1" cx="251.22" cy="227.33" r="2.06"/>
    <circle class="cls-1" cx="251.47" cy="221.36" r="2.06"/>
    <circle class="cls-1" cx="247.08" cy="216.98" r="2.06"/>
    <circle class="cls-1" cx="245.38" cy="223.43" r="2.06"/>
    <circle class="cls-1" cx="234.58" cy="220.61" r="2.06"/>
    <circle class="cls-1" cx="240.65" cy="219.81" r="2.06"/>
    <circle class="cls-1" cx="228.39" cy="218.29" r="2.06"/>
    <circle class="cls-1" cx="239.65" cy="226.35" r="2.06"/>
    <circle class="cls-1" cx="244.89" cy="229.88" r="2.06"/>
    <circle class="cls-1" cx="266.38" cy="213.91" r="2.06"/>
    <circle class="cls-1" cx="270.13" cy="218.47" r="2.06"/>
    <circle class="cls-1" cx="291.09" cy="171.3" r="2.06"/>
    <circle class="cls-1" cx="303.59" cy="169.76" r="2.06"/>
    <circle class="cls-1" cx="292.06" cy="139.2" r="2.06"/>
    <circle class="cls-1" cx="289.81" cy="133.13" r="2.06"/>
    <circle class="cls-1" cx="285.18" cy="137.79" r="2.06"/>
    <circle class="cls-1" cx="287.05" cy="150.78" r="2.06"/>
    <circle class="cls-1" cx="293.8" cy="150.28" r="2.06"/>
    <circle class="cls-1" cx="291.83" cy="144.9" r="2.06"/>
    <circle class="cls-1" cx="285.7" cy="144.07" r="2.06"/>
    <circle class="cls-1" cx="277.61" cy="136.44" r="2.06"/>
    <circle class="cls-1" cx="279.23" cy="142.16" r="2.06"/>
    <circle class="cls-1" cx="274.6" cy="146.67" r="2.06"/>
    <circle class="cls-1" cx="272.49" cy="139.93" r="2.06"/>
    <circle class="cls-1" cx="268.07" cy="145.46" r="2.06"/>
    <circle class="cls-1" cx="269.85" cy="150.79" r="2.06"/>
    <circle class="cls-1" cx="266.42" cy="156.37" r="2.06"/>
    <circle class="cls-1" cx="266.8" cy="162.46" r="2.06"/>
    <circle class="cls-1" cx="272.26" cy="158.02" r="2.06"/>
    <circle class="cls-1" cx="273.14" cy="164.49" r="2.06"/>
    <circle class="cls-1" cx="269.26" cy="134.16" r="2.06"/>
    <circle class="cls-1" cx="265.68" cy="129.2" r="2.06"/>
    <circle class="cls-1" cx="275.81" cy="152.84" r="2.06"/>
    <circle class="cls-1" cx="281.19" cy="148.56" r="2.06"/>
    <circle class="cls-1" cx="274.61" cy="130.67" r="2.06"/>
    <circle class="cls-1" cx="318.01" cy="173.16" r="2.06"/>
    <circle class="cls-1" cx="289.37" cy="156.76" r="2.06"/>
    <circle class="cls-1" cx="284.74" cy="160.49" r="2.06"/>
    <circle class="cls-1" cx="281.55" cy="155.19" r="2.06"/>
    <circle class="cls-1" cx="278.1" cy="160.06" r="2.06"/>
    <circle class="cls-1" cx="280.27" cy="165.18" r="2.06"/>
    <circle class="cls-1" cx="276.58" cy="181.85" r="2.06"/>
    <circle class="cls-1" cx="277.57" cy="175.96" r="2.06"/>
    <circle class="cls-1" cx="283.71" cy="175.07" r="2.06"/>
    <circle class="cls-1" cx="280.26" cy="170.73" r="2.06"/>
    <circle class="cls-1" cx="289.54" cy="176.59" r="2.06"/>
    <circle class="cls-1" cx="274.36" cy="170.81" r="2.06"/>
    <circle class="cls-1" cx="271.53" cy="176.32" r="2.06"/>
    <circle class="cls-1" cx="264.79" cy="190.24" r="2.06"/>
    <circle class="cls-1" cx="258.43" cy="192.92" r="2.06"/>
    <circle class="cls-1" cx="254.12" cy="177.68" r="2.06"/>
    <circle class="cls-1" cx="259.75" cy="175.93" r="2.06"/>
    <circle class="cls-1" cx="265.06" cy="178.89" r="2.06"/>
    <circle class="cls-1" cx="265.94" cy="173.25" r="2.06"/>
    <circle class="cls-1" cx="268.9" cy="168.92" r="2.06"/>
    <circle class="cls-1" cx="262.32" cy="167.49" r="2.06"/>
    <circle class="cls-1" cx="256.9" cy="171" r="2.06"/>
    <circle class="cls-1" cx="226.61" cy="181.8" r="2.06"/>
    <circle class="cls-1" cx="238.14" cy="185.03" r="2.06"/>
    <circle class="cls-1" cx="233.7" cy="180.59" r="2.06"/>
    <circle class="cls-1" cx="243.47" cy="182.24" r="2.06"/>
    <circle class="cls-1" cx="247.65" cy="177.8" r="2.06"/>
    <circle class="cls-1" cx="245.11" cy="173.11" r="2.06"/>
    <circle class="cls-1" cx="244.1" cy="167.28" r="2.06"/>
    <circle class="cls-1" cx="248.54" cy="158.9" r="2.06"/>
    <circle class="cls-1" cx="243.34" cy="155.86" r="2.06"/>
    <circle class="cls-1" cx="244.61" cy="150.41" r="2.06"/>
    <circle class="cls-1" cx="238.39" cy="150.79" r="2.06"/>
    <circle class="cls-1" cx="237.76" cy="157" r="2.06"/>
    <circle class="cls-1" cx="233.71" cy="161.02" r="2.06"/>
    <circle class="cls-1" cx="229.89" cy="165.15" r="2.06"/>
    <circle class="cls-1" cx="218.38" cy="169.64" r="2.06"/>
    <circle class="cls-1" cx="213.9" cy="164.95" r="2.06"/>
    <circle class="cls-1" cx="223.12" cy="165.36" r="2.06"/>
    <circle class="cls-1" cx="226.77" cy="159.66" r="2.06"/>
    <circle class="cls-1" cx="232.68" cy="154.59" r="2.06"/>
    <circle class="cls-1" cx="232.43" cy="148.71" r="2.06"/>
    <circle class="cls-1" cx="234.4" cy="143.45" r="2.06"/>
    <circle class="cls-1" cx="233.61" cy="137.56" r="2.06"/>
    <circle class="cls-1" cx="227.82" cy="136.87" r="2.06"/>
    <circle class="cls-1" cx="231.47" cy="131.87" r="2.06"/>
    <circle class="cls-1" cx="220.14" cy="129.92" r="2.06"/>
    <circle class="cls-1" cx="217.04" cy="134.71" r="2.06"/>
    <circle class="cls-1" cx="221.36" cy="120.19" r="2.06"/>
    <circle class="cls-1" cx="228.98" cy="121.29" r="2.06"/>
    <circle class="cls-1" cx="213.99" cy="119.8" r="2.06"/>
    <circle class="cls-1" cx="206.88" cy="119.71" r="2.06"/>
    <circle class="cls-1" cx="200.07" cy="120.22" r="2.06"/>
    <circle class="cls-1" cx="193.12" cy="119.76" r="2.06"/>
    <circle class="cls-1" cx="186.34" cy="118.18" r="2.06"/>
    <circle class="cls-1" cx="166.75" cy="114.34" r="2.06"/>
    <circle class="cls-1" cx="155.64" cy="119.12" r="2.06"/>
    <circle class="cls-1" cx="150.57" cy="122.94" r="2.06"/>
    <circle class="cls-1" cx="147.46" cy="128.18" r="2.06"/>
    <circle class="cls-1" cx="144.48" cy="133.45" r="2.06"/>
    <circle class="cls-1" cx="149.66" cy="140.43" r="2.06"/>
    <circle class="cls-1" cx="145.03" cy="145.59" r="2.06"/>
    <circle class="cls-1" cx="149.99" cy="148.93" r="2.06"/>
    <circle class="cls-1" cx="155.67" cy="150.66" r="2.06"/>
    <circle class="cls-1" cx="162.62" cy="152.01" r="2.06"/>
    <circle class="cls-1" cx="166.39" cy="146.47" r="2.06"/>
    <circle class="cls-1" cx="170.15" cy="142.38" r="2.06"/>
    <circle class="cls-1" cx="174.26" cy="137.5" r="2.06"/>
    <circle class="cls-1" cx="165.52" cy="131.55" r="2.06"/>
    <circle class="cls-1" cx="167.95" cy="137.2" r="2.06"/>
    <circle class="cls-1" cx="171.54" cy="132.19" r="2.06"/>
    <circle class="cls-1" cx="177.39" cy="132.62" r="2.06"/>
    <circle class="cls-1" cx="170" cy="126.4" r="2.06"/>
    <circle class="cls-1" cx="179.61" cy="122.23" r="2.06"/>
    <circle class="cls-1" cx="175.92" cy="126.63" r="2.06"/>
    <circle class="cls-1" cx="173.7" cy="120.52" r="2.06"/>
    <circle class="cls-1" cx="173.14" cy="115.06" r="2.06"/>
    <circle class="cls-1" cx="180.62" cy="138.72" r="2.06"/>
    <circle class="cls-1" cx="176.22" cy="152.36" r="2.06"/>
    <circle class="cls-1" cx="179.75" cy="146.82" r="2.06"/>
    <circle class="cls-1" cx="176.72" cy="142.53" r="2.06"/>
    <circle class="cls-1" cx="173.6" cy="147.53" r="2.06"/>
    <circle class="cls-1" cx="169.58" cy="151.44" r="2.06"/>
    <circle class="cls-1" cx="160.02" cy="146.11" r="2.06"/>
    <circle class="cls-1" cx="167.8" cy="119.97" r="2.06"/>
    <circle class="cls-1" cx="181.59" cy="128.23" r="2.06"/>
    <circle class="cls-1" cx="162.06" cy="136.09" r="2.06"/>
    <circle class="cls-1" cx="159.93" cy="129.87" r="2.06"/>
    <circle class="cls-1" cx="157.28" cy="125.07" r="2.06"/>
    <circle class="cls-1" cx="153.88" cy="144.86" r="2.06"/>
    <circle class="cls-1" cx="157.08" cy="140.29" r="2.06"/>
    <circle class="cls-1" cx="156.06" cy="134.8" r="2.06"/>
    <circle class="cls-1" cx="144.09" cy="139.29" r="2.06"/>
    <circle class="cls-1" cx="163.66" cy="141.68" r="2.06"/>
    <circle class="cls-1" cx="164.88" cy="125.67" r="2.06"/>
    <circle class="cls-1" cx="160.76" cy="115.66" r="2.06"/>
    <circle class="cls-1" cx="161.65" cy="121.11" r="2.06"/>
    <circle class="cls-1" cx="153.28" cy="129.42" r="2.06"/>
    <circle class="cls-1" cx="150.28" cy="134.6" r="2.06"/>
    <circle class="cls-1" cx="217.87" cy="124.72" r="2.06"/>
    <circle class="cls-1" cx="222.05" cy="136.7" r="2.06"/>
    <circle class="cls-1" cx="228.17" cy="142.99" r="2.06"/>
    <circle class="cls-1" cx="225.75" cy="130.72" r="2.06"/>
    <circle class="cls-1" cx="227.11" cy="153.78" r="2.06"/>
    <circle class="cls-1" cx="210.84" cy="124.67" r="2.06"/>
    <circle class="cls-1" cx="205.45" cy="134.61" r="2.06"/>
    <circle class="cls-1" cx="207.34" cy="129.29" r="2.06"/>
    <circle class="cls-1" cx="202.86" cy="125.37" r="2.06"/>
    <circle class="cls-1" cx="196.35" cy="125.47" r="2.06"/>
    <circle class="cls-1" cx="200.09" cy="131.35" r="2.06"/>
    <circle class="cls-1" cx="193.96" cy="130.99" r="2.06"/>
    <circle class="cls-1" cx="193.25" cy="136.94" r="2.06"/>
    <circle class="cls-1" cx="179.83" cy="116.04" r="2.06"/>
    <circle class="cls-1" cx="185.27" cy="124.05" r="2.06"/>
    <circle class="cls-1" cx="187.82" cy="130.31" r="2.06"/>
    <circle class="cls-1" cx="183.3" cy="133.78" r="2.06"/>
    <circle class="cls-1" cx="187.45" cy="137.23" r="2.06"/>
    <circle class="cls-1" cx="184.87" cy="142.38" r="2.06"/>
    <circle class="cls-1" cx="190.66" cy="125.19" r="2.06"/>
    <circle class="cls-1" cx="214.45" cy="129.4" r="2.06"/>
    <circle class="cls-1" cx="215.29" cy="139.93" r="2.06"/>
    <circle class="cls-1" cx="221.24" cy="143.29" r="2.06"/>
    <circle class="cls-1" cx="225.77" cy="148.33" r="2.06"/>
    <circle class="cls-1" cx="219.98" cy="150.51" r="2.06"/>
    <circle class="cls-1" cx="221.36" cy="156.48" r="2.06"/>
    <circle class="cls-1" cx="215.48" cy="153.62" r="2.06"/>
    <circle class="cls-1" cx="215.92" cy="145.72" r="2.06"/>
    <circle class="cls-1" cx="218.65" cy="161.55" r="2.06"/>
    <circle class="cls-1" cx="208.07" cy="161.13" r="2.06"/>
    <circle class="cls-1" cx="213.39" cy="158.64" r="2.06"/>
    <circle class="cls-1" cx="211.62" cy="149.67" r="2.06"/>
    <circle class="cls-1" cx="208.45" cy="154.62" r="2.06"/>
    <circle class="cls-1" cx="209.92" cy="141.61" r="2.06"/>
    <circle class="cls-1" cx="207.44" cy="146.39" r="2.06"/>
    <circle class="cls-1" cx="204.32" cy="151.38" r="2.06"/>
    <circle class="cls-1" cx="202.8" cy="157.31" r="2.06"/>
    <circle class="cls-1" cx="196.66" cy="154.66" r="2.06"/>
    <circle class="cls-1" cx="199.43" cy="149.54" r="2.06"/>
    <circle class="cls-1" cx="202.01" cy="144.25" r="2.06"/>
    <circle class="cls-1" cx="198.48" cy="137.27" r="2.06"/>
    <circle class="cls-1" cx="196.49" cy="142.85" r="2.06"/>
    <circle class="cls-1" cx="191.19" cy="143.25" r="2.06"/>
    <circle class="cls-1" cx="182.34" cy="151.85" r="2.06"/>
    <circle class="cls-1" cx="186.6" cy="147.81" r="2.06"/>
    <circle class="cls-1" cx="193.52" cy="148.86" r="2.06"/>
    <circle class="cls-1" cx="188.71" cy="153.07" r="2.06"/>
    <circle class="cls-1" cx="204.4" cy="139.66" r="2.06"/>
    <circle class="cls-1" cx="211.33" cy="134.92" r="2.06"/>
    <circle class="cls-1" cx="240.04" cy="177.17" r="2.06"/>
    <circle class="cls-1" cx="234.84" cy="175.01" r="2.06"/>
    <circle class="cls-1" cx="222.34" cy="175.45" r="2.06"/>
    <circle class="cls-1" cx="227.28" cy="171.22" r="2.06"/>
    <circle class="cls-1" cx="233.7" cy="169.43" r="2.06"/>
    <circle class="cls-1" cx="238.01" cy="165.25" r="2.06"/>
    <circle class="cls-1" cx="243.34" cy="161.57" r="2.06"/>
    <circle class="cls-1" cx="239.28" cy="171.08" r="2.06"/>
    <circle class="cls-1" cx="229.17" cy="176.72" r="2.06"/>
    <circle class="cls-1" cx="231.99" cy="186.55" r="2.06"/>
    <circle class="cls-1" cx="269.92" cy="182.31" r="2.06"/>
    <circle class="cls-1" cx="272.31" cy="187.87" r="2.06"/>
    <circle class="cls-1" cx="269.97" cy="193.37" r="2.06"/>
    <circle class="cls-1" cx="275.45" cy="194.02" r="2.06"/>
    <circle class="cls-1" cx="269.51" cy="199.23" r="2.06"/>
    <circle class="cls-1" cx="305.63" cy="161.69" r="2.06"/>
    <circle class="cls-1" cx="305.02" cy="155.96" r="2.06"/>
    <circle class="cls-1" cx="300.45" cy="151.76" r="2.06"/>
    <circle class="cls-1" cx="297.98" cy="146.32" r="2.06"/>
    <circle class="cls-1" cx="299.75" cy="158.84" r="2.06"/>
    <circle class="cls-1" cx="294.14" cy="161.43" r="2.06"/>
    <circle class="cls-1" cx="295.37" cy="155.74" r="2.06"/>
    <circle class="cls-1" cx="289.44" cy="164.43" r="2.06"/>
    <circle class="cls-1" cx="285.71" cy="168.91" r="2.06"/>
    <circle class="cls-1" cx="311.82" cy="161.33" r="2.06"/>
    <circle class="cls-1" cx="311.71" cy="173.02" r="2.06"/>
    <circle class="cls-1" cx="318.01" cy="160.96" r="2.06"/>
    <circle class="cls-1" cx="314.87" cy="167.44" r="2.06"/>
    <circle class="cls-1" cx="321.48" cy="166.84" r="2.06"/>
    <circle class="cls-1" cx="295.21" cy="177.59" r="2.06"/>
    <circle class="cls-1" cx="283.21" cy="181.09" r="2.06"/>
    <circle class="cls-1" cx="278.49" cy="187.54" r="2.06"/>
    <circle class="cls-1" cx="281.12" cy="192.82" r="2.06"/>
    <circle class="cls-1" cx="285.25" cy="186.84" r="2.06"/>
    <circle class="cls-1" cx="305.84" cy="174.73" r="2.06"/>
    <circle class="cls-1" cx="308.26" cy="179.95" r="2.06"/>
    <circle class="cls-1" cx="309.24" cy="186.08" r="2.06"/>
    <circle class="cls-1" cx="314.06" cy="179.22" r="2.06"/>
    <circle class="cls-1" cx="302.73" cy="184.53" r="2.06"/>
    <circle class="cls-1" cx="296.59" cy="183.36" r="2.06"/>
    <circle class="cls-1" cx="299.37" cy="196.59" r="2.06"/>
    <circle class="cls-1" cx="293.45" cy="194.93" r="2.06"/>
    <circle class="cls-1" cx="298.41" cy="189.98" r="2.06"/>
    <circle class="cls-1" cx="304.75" cy="190.91" r="2.06"/>
    <circle class="cls-1" cx="289.44" cy="182.43" r="2.06"/>
    <circle class="cls-1" cx="291.88" cy="188" r="2.06"/>
    <circle class="cls-1" cx="287.1" cy="193.22" r="2.06"/>
    <circle class="cls-1" cx="280.74" cy="198.17" r="2.06"/>
    <circle class="cls-1" cx="287.38" cy="199.49" r="2.06"/>
    <circle class="cls-1" cx="294.23" cy="201.19" r="2.06"/>
    <circle class="cls-1" cx="276.11" cy="206.46" r="2.06"/>
    <circle class="cls-1" cx="282.18" cy="210.4" r="2.06"/>
    <circle class="cls-1" cx="275.11" cy="200.43" r="2.06"/>
    <circle class="cls-1" cx="282.12" cy="203.88" r="2.06"/>
    <circle class="cls-1" cx="288.28" cy="205.9" r="2.06"/>
  </g>
</svg>