<?xml version="1.0" encoding="UTF-8"?>
<svg id="Layer_1" data-name="Layer 1" xmlns="http://www.w3.org/2000/svg" viewBox="0 0 955.81 118.33">
  <defs>
    <style>
      .cls-1 {
        fill: #f8f2e3;
      }
    </style>
  </defs>
  <path class="cls-1" d="M62.69,89.88c-.93,5.1-2.01,8.82-3.2,11.08-1.07,2.03-3.24,3.63-6.47,4.75-3.45,1.21-9.06,1.82-16.68,1.82-3.4,0-5.96-.17-7.6-.5-1.33-.26-2.26-.71-2.7-1.3-.47-.62-.72-1.71-.72-3.15V26.3c0-2.65.62-3.47.88-3.7.68-.59,1.8-.92,3.37-.99l8.95-.48v-4.54H4.6v4.54l9.1.48c1.46.07,2.54.4,3.22.99.26.23.88,1.05.88,3.7v76.28c0,1.23-.19,2.82-1.12,3.45-.99.67-2.41,1.09-4.21,1.24l-7.87.49v4.53h59.14l3.83-23.76h-4.64l-.25,1.35Z"/>
  <path class="cls-1" d="M87.54,34.42c1.78,0,3.29-.64,4.5-1.9,1.17-1.24,1.77-2.71,1.77-4.37s-.6-3.14-1.77-4.37c-2.33-2.45-6.37-2.57-8.9-.03-1.24,1.24-1.87,2.72-1.87,4.4s.63,3.17,1.87,4.4c1.24,1.24,2.72,1.87,4.4,1.87Z"/>
  <path class="cls-1" d="M91.97,106.46c-.15-.15-.67-.82-.67-3.22v-60.31l-15.71,5.85v4.64l5.8-1.61c.73-.14,1.24-.23,1.53-.23.44,0,.85,0,.85,1.51v50.15c0,2.4-.51,3.07-.67,3.22-.5.47-1.26.74-2.26.81l-6.3.52v4.49h26v-4.49l-6.3-.52c-1.02-.06-1.76-.33-2.27-.81Z"/>
  <path class="cls-1" d="M202.3,106.46c-.15-.15-.67-.82-.67-3.22v-36.03c0-7.3-1.79-13.24-5.31-17.66-3.61-4.53-8.68-6.82-15.08-6.82-4.74,0-9.32,1.62-13.6,4.82-2.81,2.1-4.97,4.62-6.49,7.55-1.24-3.18-3.09-5.8-5.53-7.82-3.63-3.01-8.07-4.54-13.2-4.54-4.38,0-8.69,1.48-12.83,4.39-2.01,1.41-3.69,3.06-5.05,4.92v-9.2l-16.77,5.92v4.59l6.78-1.66,1.47-.25c.55,0,.99,0,.99,1.51v50.28c0,2.4-.51,3.07-.67,3.22-.5.47-1.26.74-2.26.81l-6.3.52v4.49h26v-4.49l-6.3-.52c-1.02-.06-1.76-.33-2.27-.81-.15-.15-.67-.82-.67-3.22v-35.5c0-5.86,1.64-10.54,4.88-13.9,3.27-3.39,7.18-5.04,11.95-5.04,4.26,0,7.59,1.59,10.19,4.85,2.66,3.34,4,8.12,4,14.21v35.37c0,2.4-.51,3.07-.67,3.22-.5.47-1.26.74-2.3.81l-6.27.52v4.49h26v-4.49l-6.3-.52c-1.02-.06-1.76-.33-2.27-.81-.15-.15-.67-.82-.67-3.22v-35.63c0-3.91.81-7.32,2.42-10.13,1.61-2.8,3.73-4.97,6.31-6.45,2.59-1.47,5.4-2.22,8.35-2.22,4.17,0,7.43,1.58,9.98,4.84,2.61,3.34,3.94,8.13,3.94,14.23v35.37c0,2.4-.51,3.07-.67,3.22-.5.47-1.26.74-2.3.81l-6.27.52v4.49h26.01v-4.49l-6.3-.53c-1.02-.06-1.76-.33-2.27-.81Z"/>
  <path class="cls-1" d="M269.78,88.41c-.75,2.67-2.04,5.5-3.84,8.43-1.76,2.87-4.19,5.39-7.19,7.49-2.91,2.04-6.4,3.07-10.34,3.07-4.72,0-8.9-1.31-12.42-3.9-3.57-2.63-6.37-6.26-8.3-10.8-1.97-4.6-2.97-9.85-2.97-15.58,0-.7.04-1.55.12-2.57h33.99c3.58,0,6.2-.19,8-.56,2.11-.44,3.64-1.37,4.54-2.76.85-1.29,1.26-3.08,1.26-5.46,0-3.84-1.2-7.59-3.57-11.15-2.34-3.51-5.53-6.39-9.49-8.58-8.25-4.56-18.69-4.42-27.37.68-4.51,2.64-8.24,6.6-11.1,11.77-2.85,5.15-4.3,11.37-4.3,18.49,0,11.16,2.67,20.16,7.95,26.76,5.36,6.72,12.92,10.12,22.47,10.12,7.79,0,13.96-2.76,18.32-8.21,4.16-5.2,7.1-10.55,8.73-15.93l.49-1.59-4.52-1.36-.46,1.62ZM232.78,53.38c3.89-4.05,8.36-6.02,13.66-6.02,3.83,0,7.08,1.02,9.68,3.02,2.67,2.07,4.68,4.58,5.96,7.48,1.31,2.94,1.97,5.6,1.97,7.91,0,1.62-.31,2.75-.85,3.11h0c-.35.23-1.61.78-5.81.78h-31.97c1.29-7.05,3.76-12.52,7.36-16.27Z"/>
  <path class="cls-1" d="M434.77,47.53c-10.24-6.38-23.33-6.4-33.5.08-5.06,3.22-9.09,7.65-11.99,13.16-2.88,5.49-4.35,11.57-4.35,18.06s1.54,12.5,4.57,17.78c3.03,5.28,7.12,9.52,12.18,12.6,5.08,3.09,10.69,4.66,16.7,4.66s11.62-1.59,16.71-4.73c5.07-3.13,9.1-7.45,12-12.83,2.89-5.37,4.36-11.38,4.36-17.88s-1.51-12.54-4.49-17.95c-2.99-5.42-7.09-9.78-12.19-12.94ZM440.07,94.07c-2.29,4.65-5.41,8.37-9.29,11.05-7.68,5.31-17.14,5.26-24.8.12-3.88-2.6-7.05-6.28-9.41-10.92-2.38-4.67-3.58-9.92-3.58-15.61s1.18-11.01,3.52-15.77c2.33-4.74,5.47-8.58,9.33-11.4,3.78-2.77,7.87-4.17,12.15-4.17s8.44,1.37,12.32,4.06c3.93,2.73,7.15,6.54,9.56,11.33,2.42,4.81,3.65,10.09,3.65,15.69s-1.16,10.96-3.46,15.64Z"/>
  <path class="cls-1" d="M519.03,106.46c-.16-.15-.67-.82-.67-3.22v-34.05c0-8.57-2.08-15.18-6.18-19.66-4.14-4.51-9.58-6.8-16.2-6.8-3.49,0-6.95.81-10.28,2.41-3.31,1.59-6.22,3.81-8.65,6.61-.57.66-1.1,1.34-1.58,2.04v-10.95l-16.77,5.92v4.59l6.78-1.66,1.47-.25c.55,0,.99,0,.99,1.51v50.28c0,2.4-.51,3.07-.67,3.22-.5.47-1.26.74-2.26.81l-6.3.52v4.49h26v-4.49l-6.3-.52c-1.02-.06-1.76-.33-2.27-.81-.15-.15-.67-.82-.67-3.22v-33.12c0-4.11.83-7.81,2.46-10.99,1.61-3.14,3.89-5.63,6.78-7.39,2.89-1.76,6.2-2.66,9.83-2.66,4.75,0,8.56,1.64,11.65,5.01,3.08,3.36,4.64,8.76,4.64,16.04v33.12c0,2.4-.51,3.08-.67,3.22-.5.47-1.26.74-2.3.81l-6.27.52v4.49h26v-4.49l-6.3-.52c-1.02-.06-1.76-.33-2.27-.81Z"/>
  <path class="cls-1" d="M586.52,88.41c-.75,2.67-2.04,5.5-3.84,8.43-1.76,2.87-4.19,5.39-7.19,7.49-2.91,2.04-6.4,3.07-10.34,3.07-4.72,0-8.9-1.31-12.42-3.9-3.57-2.63-6.36-6.26-8.3-10.8-1.97-4.6-2.97-9.85-2.97-15.58,0-.7.04-1.55.12-2.57h33.99c3.58,0,6.2-.19,8-.56,2.11-.44,3.64-1.37,4.54-2.76.85-1.29,1.26-3.08,1.26-5.46,0-3.84-1.2-7.59-3.57-11.15-2.34-3.51-5.53-6.39-9.49-8.58-8.25-4.56-18.69-4.42-27.37.68-4.51,2.64-8.24,6.6-11.1,11.77-2.85,5.15-4.29,11.37-4.29,18.49,0,11.16,2.67,20.16,7.95,26.76,5.36,6.72,12.92,10.12,22.47,10.12,7.79,0,13.96-2.76,18.32-8.21,4.16-5.2,7.1-10.55,8.73-15.93l.49-1.59-4.52-1.36-.46,1.62ZM549.52,53.38c3.89-4.05,8.36-6.02,13.66-6.02,3.83,0,7.08,1.02,9.68,3.02,2.67,2.07,4.68,4.58,5.96,7.48,1.31,2.94,1.97,5.6,1.97,7.91,0,1.62-.31,2.75-.85,3.11h0c-.35.23-1.61.78-5.81.78h-31.97c1.29-7.05,3.76-12.52,7.36-16.27Z"/>
  <path class="cls-1" d="M375.03,103.23c-1.26,1.5-2.75,2.69-4.44,3.55-3.71,1.9-7.1,1.76-9.45-1.1-1.37-1.67-2.07-4.49-2.07-8.39v-48.1h19.66v-4.89h-19.66v-7.06h0s0-.3,0-.81v-1.13h-.02c-.06-2.56-.25-6.97-.91-9-3.9-12.13-21.26-11.25-27.66-6.98-8.63,5.76-10.14,15.33-9.41,26.82.03.46.06.89.09,1.3-.39-.18-.9-.43-1.58-.81-2.01-1.19-3.99-2.14-5.88-2.83-1.98-.73-4.23-1.09-6.71-1.09-5.75,0-10.57,1.64-14.34,4.89-3.84,3.31-5.78,7.46-5.78,12.34,0,3.29.99,6.15,2.95,8.51,1.85,2.23,4.4,4.19,7.57,5.83,3.01,1.55,7.35,3.5,12.92,5.79,6.43,2.71,10.93,5.49,13.39,8.28,2.39,2.7,3.55,5.58,3.55,8.81,0,3.4-1.22,6.13-3.72,8.33-2.57,2.26-5.74,3.35-9.67,3.35-13.95,0-21.92-8.26-24.36-25.24l-.2-1.42h-4.73l3.26,30.1h4.45v-1.65c0-.19-.02-.65-.07-1.37-.03-.39.06-.85.25-1.33,0,0,.76-.41,2.15.24.71.34,1.45.72,2.16,1.11,2.28,1.37,4.62,2.48,6.96,3.31,2.41.85,5.55,1.28,9.33,1.28,3.17,0,6.43-.61,9.68-1.82,3.34-1.24,6.18-3.25,8.42-5.98,2.31-2.8,3.48-6.33,3.48-10.49s-1.01-7.91-3-10.77c-1.93-2.78-4.39-5.07-7.3-6.81-2.78-1.66-6.49-3.49-11.03-5.45l-2.53-1.06c-4.07-1.64-7.27-3.11-9.53-4.34-2.16-1.18-3.99-2.6-5.44-4.21-1.31-1.46-1.95-3.17-1.95-5.23,0-2.8,1.04-5.12,3.17-7.1,2.14-1.98,5.13-2.99,8.9-2.99,4.89,0,8.9,1.52,12.27,4.64,3.35,3.12,5.65,8.37,6.82,15.61l.22,1.39h4.75l-3.29-24.51c-.5-5.28-.6-15.99,6.02-20.48,6.43-4.36,15.9-2.26,18.76,1.45,2.44,3.17,2.62,7.37,2.49,9.74l-.44,3.32c-.22,1.88-.83,3.24-1.88,4.15-1.04.9-4.27,1.38-7.06,1.38h-6.01v4.89h12.93v47.97c0,5.01,1.11,9.04,3.29,12,2.3,3.12,5.66,4.7,9.97,4.7,2.6,0,5.15-.8,7.57-2.38,2.29-1.49,4.39-3.43,6.26-5.76l1.42-1.78-4.29-1.6-.75.89Z"/>
  <path class="cls-1" d="M629.59,16.14v4.53l7.85.49c1.81.15,3.23.57,4.22,1.24.74.51,1.12,1.67,1.12,3.45v76.28c0,1.23-.19,2.82-1.12,3.45-.99.67-2.41,1.09-4.21,1.24l-7.87.49v4.53h33.92v-4.53l-7.85-.49c-1.82-.15-3.24-.57-4.23-1.24-.74-.5-1.12-1.66-1.12-3.45v-40.31h23.03c1.27,0,2.35.39,3.28,1.19.88.75,1.34,1.71,1.41,2.98l.66,7.58h4.48v-28.51h-4.48l-.66,7.63c-.07,1.23-.54,2.21-1.43,3.01-.93.83-1.99,1.23-3.25,1.23h-23.03V21.03h23.29c3.1,0,5.47.35,7.06,1.05,1.45.64,2.61,1.85,3.54,3.72,1.03,2.06,2.07,5.4,3.09,9.92l.29,1.29h4.6l-3.61-20.86h-59Z"/>
  <path class="cls-1" d="M710.83,33.96c1.78,0,3.29-.64,4.5-1.9,1.17-1.24,1.77-2.71,1.77-4.37s-.6-3.14-1.77-4.37c-2.33-2.45-6.36-2.57-8.9-.03-1.24,1.24-1.87,2.72-1.87,4.4s.63,3.17,1.87,4.4c1.24,1.24,2.72,1.87,4.4,1.87Z"/>
  <path class="cls-1" d="M715.26,106c-.16-.15-.67-.82-.67-3.22v-60.31l-15.71,5.85v4.64l5.8-1.61c.73-.14,1.24-.23,1.53-.23.44,0,.85,0,.85,1.51v50.15c0,2.4-.51,3.07-.67,3.22-.5.47-1.26.74-2.26.81l-6.3.52v4.49h26v-4.49l-6.3-.52c-1.02-.06-1.76-.33-2.27-.81Z"/>
  <path class="cls-1" d="M784.06,87.95c-.75,2.67-2.04,5.5-3.84,8.43-1.76,2.87-4.19,5.39-7.19,7.49-2.91,2.04-6.4,3.07-10.34,3.07-4.72,0-8.9-1.31-12.42-3.9-3.57-2.63-6.37-6.26-8.3-10.8-1.97-4.6-2.97-9.85-2.97-15.58,0-.7.04-1.55.12-2.57h33.99c3.58,0,6.2-.19,8-.56,2.11-.44,3.64-1.37,4.54-2.76.85-1.29,1.26-3.08,1.26-5.46,0-3.84-1.2-7.59-3.57-11.15-2.34-3.51-5.53-6.39-9.49-8.58-8.25-4.56-18.69-4.42-27.37.68-4.51,2.64-8.24,6.6-11.1,11.77-2.85,5.15-4.3,11.37-4.3,18.49,0,11.16,2.67,20.16,7.95,26.76,5.36,6.72,12.92,10.12,22.47,10.12,7.79,0,13.96-2.76,18.32-8.21,4.16-5.2,7.1-10.55,8.73-15.93l.49-1.59-4.52-1.36-.46,1.62ZM747.05,52.92c3.89-4.05,8.36-6.02,13.66-6.02,3.83,0,7.08,1.02,9.68,3.02,2.67,2.07,4.68,4.58,5.96,7.48,1.31,2.94,1.97,5.6,1.97,7.91,0,1.62-.31,2.75-.85,3.11h0c-.35.23-1.61.78-5.81.78h-31.97c1.29-7.05,3.76-12.52,7.36-16.27Z"/>
  <path class="cls-1" d="M813.18,106c-.15-.15-.67-.82-.67-3.22V4.5l-16.77,5.92v4.59l6.79-1.66,1.46-.24c.55,0,.99,0,.99,1.51v88.16c0,2.4-.51,3.07-.67,3.22-.5.47-1.26.74-2.27.81l-6.3.52v4.49h26v-4.49l-6.3-.52c-1.02-.06-1.76-.33-2.27-.81Z"/>
  <path class="cls-1" d="M886.74,105.22c-.44,0-.86,0-.86-1.51V4.46l-15.71,5.85v4.64l5.8-1.61c.73-.14,1.24-.23,1.53-.23.44,0,.85,0,.85,1.51v38.35c-1.87-2.37-4.09-4.46-6.64-6.25-8.44-5.91-20.01-6-28.89.27-4.39,3.1-7.93,7.38-10.5,12.71-2.56,5.31-3.86,11.28-3.86,17.72-.09,6.54,1.02,12.6,3.3,18.02,2.29,5.47,5.58,9.87,9.75,13.08,4.23,3.25,9.19,4.9,14.73,4.9,5.96,0,11.3-2.24,15.87-6.67,2.47-2.4,4.56-5.14,6.24-8.2v15.34l15.71-5.85v-4.64l-5.81,1.61c-.72.15-1.23.23-1.52.23ZM875.61,92.79c-1.98,4.34-4.65,7.74-7.91,10.1-6.43,4.67-14.31,4.82-20.73-.05-3.18-2.4-5.73-5.84-7.59-10.21-1.88-4.44-2.84-9.59-2.84-15.3.08-5.93,1-11.28,2.73-15.87,1.69-4.5,4.12-8.06,7.22-10.58,3.07-2.5,6.57-3.72,10.7-3.72,3.65,0,7.14,1.3,10.39,3.86,3.33,2.63,6.03,6.3,8.02,10.91,2.01,4.65,3.03,9.91,3.03,15.64s-1.02,10.84-3.01,15.22Z"/>
  <path class="cls-1" d="M948.21,84.35c-1.93-2.78-4.39-5.07-7.3-6.81-2.78-1.66-6.49-3.49-11.03-5.45l-2.53-1.06c-4.07-1.64-7.27-3.1-9.53-4.34-2.16-1.18-3.99-2.6-5.44-4.21-1.31-1.46-1.95-3.17-1.95-5.23,0-2.8,1.04-5.12,3.17-7.1,2.14-1.98,5.13-2.99,8.9-2.99,4.89,0,8.9,1.52,12.27,4.64,3.35,3.12,5.65,8.37,6.82,15.61l.22,1.39h4.75l-3.34-24.95h-4.72l.18,1.81c.06.67.02,1.28.13,1.75-.06,0-.65-.12-2.66-1.23-2.01-1.19-3.99-2.14-5.88-2.83-1.98-.73-4.23-1.09-6.71-1.09-5.75,0-10.57,1.64-14.34,4.89-3.84,3.31-5.78,7.46-5.78,12.34,0,3.29.99,6.15,2.95,8.51,1.85,2.23,4.4,4.19,7.57,5.83,3.01,1.55,7.35,3.5,12.92,5.79,6.43,2.71,10.93,5.49,13.39,8.28,2.39,2.7,3.55,5.58,3.55,8.81,0,3.4-1.22,6.13-3.72,8.33-2.57,2.26-5.74,3.35-9.67,3.35-13.95,0-21.92-8.26-24.36-25.24l-.2-1.42h-4.73l3.26,30.1h4.45v-1.65c0-.19-.02-.65-.07-1.37-.03-.39.06-.85.25-1.33,0,0,.76-.41,2.15.24.71.34,1.45.72,2.16,1.11,2.28,1.37,4.62,2.48,6.96,3.31,2.41.85,5.55,1.28,9.33,1.28,3.17,0,6.43-.61,9.68-1.82,3.34-1.24,6.18-3.25,8.42-5.98,2.31-2.8,3.48-6.33,3.48-10.49s-1.01-7.91-3-10.77Z"/>
</svg>